<svg width="88" height="80" viewBox="0 0 88 80" fill="none" xmlns="http://www.w3.org/2000/svg">
<path d="M36.4446 15.8708C26.7912 16.8263 16.0992 12.0308 7.45282 18.3438C-0.668653 24.2881 -1.47742 36.0709 1.80496 44.4882C9.81154 65.0032 36.6969 60.8372 53.5368 54.5332C68.9936 48.7486 91.3642 30.1671 81.6252 11.1608C77.917 3.92154 68.784 -1.05599 60.6175 0.191763C49.3421 1.90939 48.0917 14.7197 36.4446 15.8708Z" fill="#08AF24"/>
<path opacity="0.9" d="M36.4446 15.8708C26.7912 16.8263 16.0992 12.0308 7.45282 18.3438C-0.668653 24.2881 -1.47742 36.0709 1.80496 44.4882C9.81154 65.0032 36.6969 60.8372 53.5368 54.5332C68.9936 48.7486 91.3642 30.1671 81.6252 11.1608C77.917 3.92154 68.784 -1.05599 60.6175 0.191763C49.3421 1.90939 48.0917 14.7197 36.4446 15.8708Z" fill="white"/>
<path d="M43.85 79.9994C68.0587 79.9994 87.6837 78.856 87.6837 77.4455C87.6837 76.035 68.0587 74.8916 43.85 74.8916C19.6414 74.8916 0.0163574 76.035 0.0163574 77.4455C0.0163574 78.856 19.6414 79.9994 43.85 79.9994Z" fill="#F5F5F5"/>
<path d="M36.5864 17.5368C36.6022 20.2103 34.6829 20.1832 34.7213 19.3529C34.7597 18.5227 34.285 16.5351 34.7213 16.7268C35.1576 16.9186 36.5796 16.3546 36.5864 17.5368Z" fill="#263238"/>
<path d="M35.379 22.3791C35.6435 22.3588 36.1748 22.6047 36.2223 23.3018C36.2347 23.5044 36.294 23.7013 36.3956 23.8771C36.4972 24.0529 36.6383 24.2027 36.8078 24.3148C36.8078 24.3148 35.9284 24.4209 35.3519 23.9651C34.8817 23.5974 34.6737 22.7919 34.9201 22.6115C35.0551 22.5029 35.2115 22.4237 35.379 22.3791Z" fill="#263238"/>
<path d="M35.0335 20.4785C35.4857 20.8778 35.8994 21.9337 34.8798 22.4346C33.8602 22.9354 32.2573 21.769 32.2573 21.769L34.0184 20.9546L35.0335 20.4785Z" fill="#263238"/>
<path d="M35.5353 22.476C35.5104 22.3299 35.4694 22.1869 35.4132 22.0496C35.4083 22.0366 35.4006 22.0248 35.3905 22.0151C35.3805 22.0055 35.3684 21.9982 35.3551 21.9939C35.3419 21.9895 35.3278 21.9882 35.314 21.9901C35.3002 21.9919 35.2869 21.9969 35.2753 22.0045L34.649 22.4219C34.6365 22.4304 34.6261 22.4418 34.619 22.4552C34.6119 22.4685 34.6082 22.4835 34.6082 22.4986C34.6082 22.5138 34.6119 22.5287 34.619 22.542C34.6261 22.5554 34.6365 22.5668 34.649 22.5753C34.7392 22.6413 34.8362 22.6972 34.9384 22.7423C35.0854 22.8009 35.3906 22.634 35.4946 22.5618C35.5088 22.5529 35.5203 22.54 35.5275 22.5248C35.5347 22.5097 35.5374 22.4927 35.5353 22.476Z" fill="#08AF24"/>
<path opacity="0.3" d="M35.5353 22.476C35.5104 22.3299 35.4694 22.1869 35.4132 22.0496C35.4083 22.0366 35.4006 22.0248 35.3905 22.0151C35.3805 22.0055 35.3684 21.9982 35.3551 21.9939C35.3419 21.9895 35.3278 21.9882 35.314 21.9901C35.3002 21.9919 35.2869 21.9969 35.2753 22.0045L34.649 22.4219C34.6365 22.4304 34.6261 22.4418 34.619 22.4552C34.6119 22.4685 34.6082 22.4835 34.6082 22.4986C34.6082 22.5138 34.6119 22.5287 34.619 22.542C34.6261 22.5554 34.6365 22.5668 34.649 22.5753C34.7392 22.6413 34.8362 22.6972 34.9384 22.7423C35.0854 22.8009 35.3906 22.634 35.4946 22.5618C35.5088 22.5529 35.5203 22.54 35.5275 22.5248C35.5347 22.5097 35.5374 22.4927 35.5353 22.476Z" fill="black"/>
<path d="M28.7958 21.3686C28.5448 21.2852 27.9706 21.398 27.7581 22.0658C27.6977 22.2595 27.5932 22.4367 27.4528 22.5835C27.3124 22.7303 27.1399 22.8427 26.9487 22.9118C26.9487 22.9118 27.7784 23.2232 28.4476 22.9118C28.9902 22.6659 29.3745 21.9304 29.1869 21.6958C29.0817 21.5598 28.9483 21.4482 28.7958 21.3686Z" fill="#263238"/>
<path d="M31.2874 16.7764C30.3718 17.0245 29.1397 18.1075 29.6868 19.4363C29.1465 19.8041 28.4547 20.8622 29.264 21.539C30.1344 22.2677 32.2753 21.2457 32.2753 21.2457L32.2912 20.8983L32.5466 18.3128L31.2874 16.7764Z" fill="#263238"/>
<path d="M28.622 21.4264C28.6827 21.2898 28.7585 21.1604 28.848 21.0406C28.8569 21.0297 28.8681 21.021 28.8809 21.015C28.8936 21.009 28.9074 21.0059 28.9215 21.0059C28.9356 21.0059 28.9494 21.009 28.9622 21.015C28.9749 21.021 28.9861 21.0297 28.995 21.0406L29.5014 21.5933C29.5116 21.6046 29.519 21.6181 29.5229 21.6328C29.5267 21.6475 29.527 21.6629 29.5237 21.6777C29.5204 21.6925 29.5135 21.7063 29.5038 21.7179C29.494 21.7296 29.4815 21.7387 29.4675 21.7445C29.3647 21.7863 29.2579 21.8173 29.1487 21.837C28.9905 21.8596 28.7463 21.6272 28.6513 21.5324C28.636 21.52 28.6249 21.5031 28.6196 21.4841C28.6144 21.4651 28.6152 21.4449 28.622 21.4264Z" fill="#08AF24"/>
<path opacity="0.3" d="M28.622 21.4264C28.6827 21.2898 28.7585 21.1604 28.848 21.0406C28.8569 21.0297 28.8681 21.021 28.8809 21.015C28.8936 21.009 28.9074 21.0059 28.9215 21.0059C28.9356 21.0059 28.9494 21.009 28.9622 21.015C28.9749 21.021 28.9861 21.0297 28.995 21.0406L29.5014 21.5933C29.5116 21.6046 29.519 21.6181 29.5229 21.6328C29.5267 21.6475 29.527 21.6629 29.5237 21.6777C29.5204 21.6925 29.5135 21.7063 29.5038 21.7179C29.494 21.7296 29.4815 21.7387 29.4675 21.7445C29.3647 21.7863 29.2579 21.8173 29.1487 21.837C28.9905 21.8596 28.7463 21.6272 28.6513 21.5324C28.636 21.52 28.6249 21.5031 28.6196 21.4841C28.6144 21.4651 28.6152 21.4449 28.622 21.4264Z" fill="black"/>
<path d="M36.8601 26.1934C37.2919 26.5273 37.7644 26.8837 38.2392 27.2086C38.714 27.5335 39.191 27.8606 39.6816 28.1607C40.1721 28.4607 40.6695 28.7405 41.1714 29.0067L41.5489 29.1985L41.9333 29.3767C42.0599 29.4376 42.1887 29.4918 42.3198 29.5414L42.512 29.6204C42.5776 29.6452 42.6477 29.6768 42.6884 29.6881C42.9246 29.7603 43.1667 29.8124 43.4118 29.8437C43.6786 29.8821 43.9589 29.9092 44.2437 29.9295C44.8112 29.9656 45.3945 29.9814 45.98 29.9836C46.5655 29.9859 47.1579 29.9836 47.7479 29.9656C48.338 29.9475 48.9348 29.934 49.5226 29.9159L49.6334 30.8026C48.446 31.0416 47.2469 31.2185 46.041 31.3328C45.4329 31.3869 44.8225 31.4275 44.1985 31.432C43.8865 31.432 43.57 31.432 43.2445 31.4027C42.8944 31.3821 42.5474 31.3254 42.2091 31.2335C42.1051 31.2064 42.0395 31.1794 41.9626 31.1545L41.7366 31.0756C41.5851 31.0259 41.4359 30.9718 41.2844 30.9109L40.8458 30.7349L40.4163 30.5454C39.8487 30.2899 39.2955 30.0037 38.7592 29.6881C38.2256 29.3745 37.7011 29.0496 37.1947 28.7021C36.6883 28.3547 36.2 27.996 35.7026 27.5741L36.8601 26.1934Z" fill="#E4897B"/>
<path d="M34.5132 25.1805C35.0761 24.7428 37.3934 26.1754 38.0987 26.7733L37.5855 29.8709C37.5855 29.8709 34.2509 28.4766 34.0497 27.5246C33.8417 26.5296 34.0881 25.5144 34.5132 25.1805Z" fill="#263238"/>
<path d="M49.276 29.9928L50.6731 28.9121L50.7839 30.5839C50.7839 30.5839 49.8208 31.1795 49.1855 30.8095L49.276 29.9928Z" fill="#E4897B"/>
<path d="M51.9188 28.748L52.6332 29.5422L50.7748 30.5845L50.6641 28.9127L51.9188 28.748Z" fill="#E4897B"/>
<path d="M25.3752 75.2415L27.1364 75.3724L27.7784 71.3271L26.0196 71.1963L25.3752 75.2415Z" fill="#E4897B"/>
<path d="M12.9163 69.5883L14.4106 70.5268L17.0715 67.3773L15.5772 66.4365L12.9163 69.5883Z" fill="#E4897B"/>
<path d="M14.8831 70.19L13.4837 68.7844C13.4598 68.7599 13.4277 68.7451 13.3936 68.7426C13.3594 68.7401 13.3255 68.7501 13.2983 68.7709L12.0255 69.7207C11.9945 69.7457 11.969 69.777 11.9509 69.8125C11.9327 69.848 11.9222 69.8868 11.9201 69.9266C11.918 69.9664 11.9242 70.0062 11.9385 70.0434C11.9528 70.0806 11.9747 70.1144 12.0029 70.1426C12.498 70.6231 12.7625 70.8307 13.3774 71.4489C13.755 71.8302 14.2682 72.4235 14.7904 72.9492C15.3126 73.4749 15.8597 72.9853 15.6947 72.7236C14.9306 71.5346 15.0685 71.0902 15.0165 70.4855C15.0088 70.3743 14.9615 70.2694 14.8831 70.19Z" fill="#263238"/>
<path d="M27.2542 75.1202H25.2692C25.2343 75.1202 25.2005 75.1323 25.1737 75.1546C25.1468 75.1769 25.1286 75.2078 25.1223 75.2421L24.8081 76.8078C24.8008 76.8475 24.8027 76.8883 24.8135 76.9271C24.8244 76.966 24.8439 77.0018 24.8707 77.0321C24.8975 77.0623 24.9308 77.086 24.9681 77.1015C25.0054 77.1169 25.0458 77.1238 25.0861 77.1214C25.7779 77.1101 26.1148 77.0695 26.9874 77.0695C27.5232 77.0695 29.0221 77.1236 29.7704 77.1236C30.5187 77.1236 30.5933 76.3927 30.2881 76.3272C28.9204 76.0294 27.998 75.6211 27.5526 75.2285C27.4703 75.1563 27.3638 75.1177 27.2542 75.1202Z" fill="#263238"/>
<path d="M27.7783 71.3268L27.4211 73.5739L25.6848 73.2829L26.0171 71.1982L27.7783 71.3268Z" fill="#CE6F64"/>
<path d="M15.5773 66.4385L17.0716 67.377L15.9707 68.6811L14.4424 67.7809L15.5773 66.4385Z" fill="#CE6F64"/>
<path d="M26.7139 34.5548L33.7538 35.9242C37.3914 26.0944 36.6001 25.7717 36.6001 25.7717C36.0885 25.4912 35.56 25.2426 35.0176 25.0272L34.9226 24.9911C34.4705 24.8264 34.3801 24.8016 33.7787 24.6256C32.7433 24.3797 31.7779 24.1744 30.582 24.0052L30.3559 23.9736C30.1299 23.9466 29.9241 23.924 29.7161 23.9037C29.576 23.8879 29.4358 23.8789 29.3024 23.8698L28.8503 23.845C28.0771 23.8067 27.5232 23.818 27.5232 23.818C27.738 29.9568 27.3898 31.7188 26.7139 34.5548Z" fill="#263238"/>
<path d="M31.5992 20.4785C31.5992 21.5434 31.4342 23.4633 30.5796 24.0093C30.5796 24.0093 30.6587 25.1058 32.5691 25.4758C34.6716 25.8842 33.7763 24.6298 33.7763 24.6298C32.6844 24.1334 32.872 23.2896 33.2337 22.5316L31.5992 20.4785Z" fill="#E4897B"/>
<path d="M32.2662 21.3164L33.2338 22.5324C33.149 22.7082 33.0795 22.8909 33.0258 23.0784C32.5985 22.9295 32.0899 22.3339 32.1215 21.8669C32.136 21.6762 32.185 21.4896 32.2662 21.3164Z" fill="#CE6F64"/>
<path d="M31.4974 18.0341C31.2713 19.769 31.1334 20.4977 31.8297 21.5468C32.8765 23.1261 35.0603 23.0246 35.8041 21.3934C36.4824 19.9247 36.7356 17.3324 35.1869 16.3284C34.847 16.1044 34.4552 15.9707 34.0489 15.9403C33.6426 15.9098 33.2353 15.9836 32.8656 16.1545C32.4959 16.3254 32.1761 16.5878 31.9366 16.9168C31.6972 17.2457 31.546 17.6304 31.4974 18.0341Z" fill="#E4897B"/>
<path d="M37.1561 15.2856C37.1877 15.5608 37.167 15.8394 37.0951 16.1069C37.0786 16.0161 37.0567 15.9265 37.0295 15.8384C36.41 13.7944 33.6203 14.2817 32.7793 15.1616C31.4228 14.7735 30.1319 15.0826 30.3038 16.7408C30.3252 17.1681 30.4793 17.578 30.7446 17.914C30.5344 18.4961 30.7446 19.4233 31.4387 19.4504C32.4153 19.4888 33.3422 18.1983 33.7152 17.4899C34.3935 17.6049 35.3701 17.7155 36.1116 17.535C36.236 17.6094 36.3377 17.6613 36.3377 17.6613C37.1267 17.2394 37.7281 16.8311 37.1561 15.2856Z" fill="#263238"/>
<path d="M30.8962 19.2183C30.8685 19.555 30.9749 19.8889 31.1923 20.1478C31.4862 20.4885 31.8705 20.2877 32.0084 19.8839C32.1237 19.5184 32.1079 18.9025 31.7145 18.7107C31.6279 18.67 31.5324 18.6517 31.4368 18.6572C31.3412 18.6628 31.2485 18.6921 31.1671 18.7426C31.0858 18.7931 31.0184 18.863 30.9711 18.9461C30.9237 19.0292 30.898 19.1228 30.8962 19.2183Z" fill="#E4897B"/>
<path d="M33.6474 35.9246C33.6474 35.9246 33.6745 49.8718 32.5306 55.124C31.3414 60.5883 27.8441 73.0195 27.8441 73.0195L25.312 72.6923C25.312 72.6923 27.2947 60.1349 28.138 54.7044C29.0581 48.7866 28.4952 34.9229 28.4952 34.9229L33.6474 35.9246Z" fill="#08AF24"/>
<path opacity="0.3" d="M33.6474 35.9246C33.6474 35.9246 33.6745 49.8718 32.5306 55.124C31.3414 60.5883 27.8441 73.0195 27.8441 73.0195L25.312 72.6923C25.312 72.6923 27.2947 60.1349 28.138 54.7044C29.0581 48.7866 28.4952 34.9229 28.4952 34.9229L33.6474 35.9246Z" fill="black"/>
<path d="M28.2761 73.2385L24.8782 72.8008L25.0229 71.6006L28.8797 72.0518L28.2761 73.2385Z" fill="#263238"/>
<path d="M31.8955 35.5632C31.8955 35.5632 28.1043 47.0896 26.2211 53.7293C24.2361 60.7345 16.6264 68.482 16.6264 68.482L14.4448 67.2231C14.4448 67.2231 19.6445 59.8682 21.5549 53.3323C25.4456 40.0641 23.8473 37.253 26.7139 34.5547L31.8955 35.5632Z" fill="#08AF24"/>
<path opacity="0.3" d="M31.8955 35.5632C31.8955 35.5632 28.1043 47.0896 26.2211 53.7293C24.2361 60.7345 16.6264 68.482 16.6264 68.482L14.4448 67.2231C14.4448 67.2231 19.6445 59.8682 21.5549 53.3323C25.4456 40.0641 23.8473 37.253 26.7139 34.5547L31.8955 35.5632Z" fill="black"/>
<path d="M16.9814 68.8325L13.9497 67.0862L14.7048 66.0078L18.0711 67.8601L16.9814 68.8325Z" fill="#263238"/>
<path d="M34.0067 19.0193C33.9795 19.1594 34.0316 19.2859 34.1244 19.304C34.2173 19.3221 34.3124 19.2226 34.3509 19.078C34.3893 18.9334 34.326 18.8091 34.2331 18.7911C34.1403 18.773 34.0339 18.8792 34.0067 19.0193Z" fill="#263238"/>
<path d="M35.587 19.326C35.5599 19.4661 35.6119 19.5948 35.7048 19.6129C35.7976 19.631 35.8927 19.5316 35.9199 19.387C35.947 19.2424 35.895 19.1181 35.8021 19.1023C35.7093 19.0865 35.6142 19.1836 35.587 19.326Z" fill="#263238"/>
<path d="M35.7612 19.1055L36.1167 19.0762C36.1167 19.0762 35.8926 19.3044 35.7612 19.1055Z" fill="#263238"/>
<path d="M35.1236 19.4863C35.1859 19.8284 35.2955 20.1602 35.4491 20.4723C35.3681 20.5101 35.2797 20.5297 35.1903 20.5297C35.1008 20.5297 35.0124 20.5101 34.9314 20.4723L35.1236 19.4863Z" fill="#DE5753"/>
<path d="M34.3391 20.9237C34.1502 20.8928 33.9715 20.8168 33.8184 20.702C33.6652 20.5873 33.5422 20.4373 33.4597 20.2649C33.4575 20.2599 33.4563 20.2544 33.4563 20.249C33.4563 20.2435 33.4573 20.2381 33.4594 20.233C33.4615 20.2279 33.4647 20.2234 33.4686 20.2195C33.4725 20.2157 33.4772 20.2127 33.4823 20.2107C33.4925 20.2069 33.5038 20.2071 33.5139 20.2113C33.524 20.2155 33.5321 20.2234 33.5366 20.2333C33.6155 20.3918 33.7308 20.5295 33.8729 20.6353C34.0151 20.7412 34.1802 20.8121 34.355 20.8424C34.3603 20.8433 34.3655 20.8451 34.3701 20.848C34.3748 20.8508 34.3788 20.8546 34.3819 20.859C34.3851 20.8634 34.3874 20.8684 34.3885 20.8737C34.3897 20.879 34.3898 20.8845 34.3889 20.8898C34.3867 20.9008 34.3802 20.9106 34.3709 20.9169C34.3616 20.9232 34.3502 20.9257 34.3391 20.9237Z" fill="#263238"/>
<path d="M33.6474 18.419C33.6307 18.4188 33.6144 18.4137 33.6006 18.4042C33.5869 18.3948 33.5763 18.3814 33.5702 18.3659C33.5641 18.3503 33.5628 18.3333 33.5665 18.3171C33.5702 18.3008 33.5787 18.286 33.5909 18.2746C33.6879 18.1839 33.8051 18.1175 33.9329 18.081C34.0606 18.0446 34.1953 18.039 34.3257 18.0648C34.347 18.0711 34.3651 18.0854 34.3761 18.1048C34.387 18.1242 34.39 18.147 34.3844 18.1685C34.3786 18.1897 34.3647 18.2077 34.3456 18.2187C34.3266 18.2297 34.304 18.2327 34.2827 18.2272C34.1792 18.2089 34.0728 18.2148 33.9719 18.2446C33.8711 18.2743 33.7786 18.3271 33.7017 18.3987C33.6867 18.4119 33.6674 18.4191 33.6474 18.419Z" fill="#263238"/>
<path d="M36.4644 18.7325C36.4478 18.7327 36.4315 18.7278 36.4178 18.7185C36.4041 18.7093 36.3935 18.696 36.3875 18.6806C36.3487 18.5829 36.2877 18.4955 36.2092 18.4254C36.1307 18.3553 36.037 18.3044 35.9354 18.2767C35.9245 18.2748 35.9141 18.2708 35.9049 18.2649C35.8956 18.259 35.8876 18.2513 35.8813 18.2423C35.875 18.2333 35.8705 18.2231 35.8681 18.2124C35.8658 18.2016 35.8656 18.1905 35.8675 18.1797C35.8724 18.1584 35.8851 18.1397 35.903 18.1272C35.921 18.1146 35.943 18.1093 35.9647 18.112C36.0937 18.1442 36.2131 18.2066 36.313 18.2941C36.4129 18.3816 36.4903 18.4917 36.539 18.6152C36.5434 18.6254 36.5458 18.6363 36.5459 18.6475C36.546 18.6586 36.5439 18.6696 36.5397 18.6799C36.5355 18.6902 36.5292 18.6996 36.5214 18.7074C36.5135 18.7153 36.5041 18.7215 36.4938 18.7257L36.4644 18.7325Z" fill="#263238"/>
<path d="M34.197 20.2563C34.127 20.2565 34.0579 20.2406 33.9951 20.2096C33.9323 20.1787 33.8776 20.1337 33.8352 20.078C33.7289 19.9126 33.658 19.7269 33.6269 19.5328C33.5957 19.3387 33.6051 19.1403 33.6544 18.95C33.7832 18.237 34.2309 17.6572 34.6536 17.6572C34.724 17.6581 34.7933 17.6747 34.8563 17.706C34.9193 17.7372 34.9744 17.7823 35.0176 17.8377C35.1236 18.0034 35.1943 18.189 35.2254 18.383C35.2565 18.577 35.2473 18.7754 35.1985 18.9658C35.0696 19.6787 34.6197 20.2563 34.197 20.2563ZM34.6491 17.7204C34.2535 17.7204 33.8285 18.2799 33.7041 18.9658C33.625 19.417 33.6883 19.8231 33.8737 20.0419C33.9113 20.0906 33.9596 20.1302 34.0148 20.1575C34.0701 20.1849 34.1308 20.1994 34.1924 20.1999C34.5903 20.1999 35.0131 19.6426 35.1374 18.9567H35.1646H35.1374C35.1854 18.7754 35.1951 18.5861 35.1659 18.4009C35.1367 18.2156 35.0693 18.0385 34.9679 17.8806C34.9308 17.8322 34.8833 17.7927 34.8289 17.765C34.7746 17.7372 34.7147 17.722 34.6536 17.7204H34.6491Z" fill="#FAFAFA"/>
<path d="M35.9532 20.4812C35.8801 20.4797 35.8083 20.4619 35.743 20.4291C35.6776 20.3963 35.6205 20.3494 35.5757 20.2917C35.4742 20.1398 35.4055 19.9685 35.374 19.7886C35.3424 19.6088 35.3488 19.4244 35.3926 19.2471C35.5079 18.5838 35.9419 18.0469 36.3602 18.0469C36.4335 18.0487 36.5054 18.0668 36.5708 18.1C36.6361 18.1332 36.6931 18.1806 36.7377 18.2386C36.8385 18.3904 36.9068 18.5614 36.9383 18.7407C36.9698 18.9201 36.9639 19.104 36.9208 19.281C36.8078 19.9465 36.3737 20.4812 35.9532 20.4812ZM36.3534 18.1033C35.96 18.1033 35.5531 18.6199 35.4491 19.2584C35.4084 19.4276 35.4027 19.6032 35.4322 19.7746C35.4617 19.9461 35.5259 20.1097 35.6209 20.2556C35.6607 20.3067 35.7113 20.3484 35.7692 20.3777C35.827 20.407 35.8907 20.4231 35.9555 20.4248C36.3489 20.4248 36.7581 19.9104 36.8598 19.2719C36.9003 19.1029 36.9061 18.9274 36.877 18.7561C36.8479 18.5847 36.7843 18.421 36.6902 18.2747C36.6507 18.2232 36.6002 18.1811 36.5423 18.1514C36.4844 18.1217 36.4207 18.1053 36.3557 18.1033H36.3534Z" fill="#FAFAFA"/>
<path d="M15.4032 71.0092C15.1771 71.0092 14.9397 70.6617 14.8176 70.4609C14.8132 70.4543 14.8108 70.4464 14.8108 70.4384C14.8108 70.4303 14.8132 70.4225 14.8176 70.4158C14.8226 70.4094 14.8292 70.4043 14.8368 70.4012C14.8443 70.398 14.8525 70.3968 14.8606 70.3978C14.9329 70.4136 15.5547 70.5489 15.6338 70.761C15.6428 70.7844 15.6452 70.8098 15.6408 70.8344C15.6364 70.8591 15.6254 70.882 15.6089 70.9009C15.5867 70.9349 15.5561 70.9627 15.5201 70.9816C15.4841 71.0006 15.4439 71.0101 15.4032 71.0092ZM14.9307 70.5016C15.1048 70.7633 15.2743 70.9189 15.3964 70.9257C15.4235 70.9259 15.4502 70.9192 15.474 70.9062C15.4977 70.8931 15.5177 70.8742 15.532 70.8513C15.5397 70.8433 15.5448 70.8333 15.5468 70.8225C15.5488 70.8117 15.5476 70.8005 15.5434 70.7903C15.5027 70.6775 15.1794 70.5647 14.9307 70.5016Z" fill="#08AF24"/>
<path d="M15.0325 70.5014C14.964 70.5024 14.8956 70.4948 14.829 70.4788C14.8222 70.4765 14.816 70.4726 14.8109 70.4675C14.8058 70.4625 14.802 70.4563 14.7996 70.4495C14.7943 70.4365 14.7943 70.4219 14.7996 70.4089C14.8154 70.3954 15.1613 70.0547 15.4168 70.0547H15.4349C15.4665 70.0568 15.4974 70.0655 15.5254 70.0803C15.5535 70.095 15.5781 70.1155 15.5977 70.1404C15.6207 70.1645 15.635 70.1955 15.6383 70.2287C15.6416 70.2618 15.6336 70.2951 15.6157 70.3232C15.5434 70.445 15.254 70.5014 15.0325 70.5014ZM14.9307 70.4134C15.1432 70.4382 15.4869 70.3773 15.557 70.2758C15.5683 70.26 15.5773 70.2352 15.5434 70.1923C15.5316 70.1757 15.516 70.1622 15.4979 70.1527C15.4799 70.1433 15.4598 70.1383 15.4394 70.1382C15.2454 70.1753 15.0677 70.2714 14.9307 70.4134Z" fill="#08AF24"/>
<path d="M27.9028 75.4289C27.7157 75.4238 27.5295 75.4011 27.3467 75.3612C27.338 75.3595 27.3301 75.355 27.324 75.3486C27.3179 75.3421 27.314 75.3339 27.3128 75.3251C27.3118 75.3166 27.3134 75.3079 27.3174 75.3002C27.3215 75.2926 27.3277 75.2863 27.3354 75.2823C27.419 75.2417 28.1447 74.8807 28.355 75.0025C28.3741 75.0146 28.39 75.0312 28.401 75.0509C28.4121 75.0706 28.418 75.0928 28.4183 75.1153C28.4209 75.1534 28.4142 75.1916 28.3989 75.2265C28.3835 75.2615 28.3599 75.2922 28.3301 75.3161C28.2043 75.4003 28.0539 75.44 27.9028 75.4289ZM27.4891 75.3071C27.8757 75.3703 28.1674 75.3545 28.2804 75.2575C28.2996 75.2408 28.3148 75.2199 28.3246 75.1964C28.3344 75.1729 28.3386 75.1475 28.3369 75.1221C28.3374 75.1136 28.3355 75.1051 28.3315 75.0976C28.3275 75.09 28.3216 75.0837 28.3143 75.0792C28.2013 75.0138 27.7988 75.1672 27.4891 75.3071Z" fill="#08AF24"/>
<path d="M27.3579 75.3609C27.3498 75.3632 27.3412 75.3632 27.3331 75.3609C27.3264 75.3566 27.3212 75.3505 27.318 75.3433C27.3147 75.3361 27.3137 75.3281 27.315 75.3203C27.315 75.2887 27.4235 74.5713 27.8169 74.5713H27.8508C27.9638 74.5826 27.9955 74.639 28.0022 74.6864C28.0339 74.8849 27.5953 75.2684 27.3738 75.3632L27.3579 75.3609ZM27.8101 74.648C27.5546 74.648 27.4416 75.0631 27.4031 75.2436C27.6292 75.1105 27.9299 74.8104 27.9118 74.6909C27.9118 74.6909 27.9118 74.6548 27.8327 74.648H27.8101Z" fill="#08AF24"/>
<path d="M34.1809 18.7982L34.5364 18.7666C34.5364 18.7666 34.3122 18.9971 34.1809 18.7982Z" fill="#263238"/>
<path d="M32.6278 26.9766C29.6889 25.8643 28.771 24.1993 28.8411 23.8496L29.2932 23.8767H29.3701C29.4786 23.8767 29.5962 23.8925 29.707 23.906C29.9149 23.9241 30.1297 23.9466 30.3467 23.976L30.5728 24.0075C31.6519 24.1379 32.7202 24.3453 33.7695 24.628C34.2488 24.7678 34.4071 24.813 34.6738 24.9077L34.9112 24.9935L35.0062 25.0296C35.2413 25.5349 35.1893 26.5682 32.6278 26.9766Z" fill="#E4897B"/>
<path d="M32.6278 26.9766C29.6889 25.8643 28.771 24.1993 28.8411 23.8496L29.2932 23.8767H29.3701C29.9669 24.7227 31.2737 25.8914 32.6052 26.0516C33.6768 25.826 34.6874 25.5688 34.6783 24.9077L34.9157 24.9935L35.0107 25.0296C35.2413 25.5349 35.1893 26.5682 32.6278 26.9766Z" fill="#08AF24"/>
<path opacity="0.3" d="M32.6278 26.9766C29.6889 25.8643 28.771 24.1993 28.8411 23.8496L29.2932 23.8767H29.3701C29.9669 24.7227 31.2737 25.8914 32.6052 26.0516C33.6768 25.826 34.6874 25.5688 34.6783 24.9077L34.9157 24.9935L35.0107 25.0296C35.2413 25.5349 35.1893 26.5682 32.6278 26.9766Z" fill="black"/>
<path d="M26.6888 34.122L26.2366 34.6905C26.2027 34.7334 26.2524 34.7943 26.3338 34.8101L33.7174 36.245C33.7807 36.2585 33.8395 36.245 33.8508 36.1976L34.0362 35.5817C34.0498 35.5388 34.0023 35.4914 33.9322 35.4779L26.8018 34.0926C26.782 34.0885 26.7614 34.089 26.7418 34.0941C26.7222 34.0991 26.7041 34.1087 26.6888 34.122Z" fill="#263238"/>
<path d="M27.4912 35.1031L27.3013 35.067C27.2629 35.067 27.238 35.0354 27.2448 35.0106L27.4934 34.2119C27.4934 34.1871 27.5387 34.1758 27.5748 34.1826L27.767 34.2187C27.8054 34.2187 27.8303 34.2525 27.8235 34.2751L27.5748 35.076C27.5658 35.0891 27.5527 35.0988 27.5376 35.1037C27.5225 35.1086 27.5062 35.1084 27.4912 35.1031Z" fill="#08AF24"/>
<path opacity="0.3" d="M27.4912 35.1031L27.3013 35.067C27.2629 35.067 27.238 35.0354 27.2448 35.0106L27.4934 34.2119C27.4934 34.1871 27.5387 34.1758 27.5748 34.1826L27.767 34.2187C27.8054 34.2187 27.8303 34.2525 27.8235 34.2751L27.5748 35.076C27.5658 35.0891 27.5527 35.0988 27.5376 35.1037C27.5225 35.1086 27.5062 35.1084 27.4912 35.1031Z" fill="black"/>
<path d="M27.993 26.5409C27.9071 27.0756 27.8257 27.669 27.767 28.224C27.7082 28.779 27.6562 29.352 27.6291 29.9296C27.614 30.2139 27.6049 30.4981 27.6019 30.7824C27.6019 31.0644 27.6019 31.3464 27.6019 31.6285C27.6131 32.181 27.6561 32.7324 27.7308 33.2799C27.7735 33.4674 27.8501 33.6456 27.9569 33.8056C28.0922 34.0253 28.2433 34.2349 28.409 34.4328C28.7704 34.8606 29.157 35.2667 29.5665 35.6488C29.9802 36.0459 30.4143 36.4295 30.8597 36.804C31.305 37.1785 31.764 37.5507 32.2161 37.9095L31.7301 38.6585C30.6661 38.0765 29.6488 37.4135 28.6871 36.6754C28.1906 36.2959 27.7222 35.8812 27.2854 35.4345C27.0526 35.195 26.8387 34.9377 26.6456 34.6652C26.4068 34.3428 26.2368 33.975 26.146 33.5845L26.0624 33.1062C26.033 32.9505 26.0126 32.7949 25.9945 32.6414C25.9493 32.3301 25.9245 32.021 25.8996 31.7119C25.8526 31.0972 25.8382 30.4804 25.8566 29.8642C25.8747 29.2528 25.9086 28.6436 25.9697 28.0367C26.0307 27.4298 26.1076 26.8342 26.2297 26.207L27.993 26.5409Z" fill="#E4897B"/>
<path d="M26.4922 24.2902C25.5246 25.0708 25.7552 27.3901 25.7552 27.3901L29.0107 28.4595C29.0107 28.4595 28.8615 25.786 28.7033 24.8249C28.5088 23.6811 27.4417 23.5209 26.4922 24.2902Z" fill="#263238"/>
<path d="M31.8185 37.7657L33.2902 37.2197L33.0641 38.6163C33.0641 38.6163 31.9971 38.9998 31.45 38.508L31.8185 37.7657Z" fill="#E4897B"/>
<path d="M35.0421 37.4273V38.5057L33.064 38.6163L33.29 37.2197L35.0421 37.4273Z" fill="#E4897B"/>
<path d="M33.177 36.2086L32.9871 36.1725C32.9486 36.1725 32.9238 36.1409 32.9306 36.1161L33.1792 35.3174C33.1792 35.2926 33.2245 35.2813 33.2629 35.2881L33.4528 35.3242C33.4912 35.3242 33.5161 35.358 33.5093 35.3806L33.2606 36.1815C33.2538 36.204 33.2245 36.2176 33.177 36.2086Z" fill="#08AF24"/>
<path opacity="0.3" d="M33.177 36.2086L32.9871 36.1725C32.9486 36.1725 32.9238 36.1409 32.9306 36.1161L33.1792 35.3174C33.1792 35.2926 33.2245 35.2813 33.2629 35.2881L33.4528 35.3242C33.4912 35.3242 33.5161 35.358 33.5093 35.3806L33.2606 36.1815C33.2538 36.204 33.2245 36.2176 33.177 36.2086Z" fill="black"/>
<path d="M30.3352 35.6539L30.143 35.6178C30.1046 35.6178 30.0797 35.5862 30.0888 35.5614L30.3375 34.7627C30.3375 34.7379 30.3804 34.7266 30.4188 34.7334L30.611 34.7695C30.6472 34.7695 30.6743 34.8033 30.6653 34.8259L30.4166 35.6268C30.4098 35.6539 30.3736 35.6651 30.3352 35.6539Z" fill="#08AF24"/>
<path opacity="0.3" d="M30.3352 35.6539L30.143 35.6178C30.1046 35.6178 30.0797 35.5862 30.0888 35.5614L30.3375 34.7627C30.3375 34.7379 30.3804 34.7266 30.4188 34.7334L30.611 34.7695C30.6472 34.7695 30.6743 34.8033 30.6653 34.8259L30.4166 35.6268C30.4098 35.6539 30.3736 35.6651 30.3352 35.6539Z" fill="black"/>
<path d="M15.9367 48.8088L27.6564 74.3525C27.9251 74.933 28.413 75.3839 29.0136 75.6066C29.6143 75.8294 30.2788 75.806 30.8622 75.5415L32.7228 74.6932L75.8059 55.0086C76.3879 54.7414 76.8401 54.2551 77.0638 53.656C77.2875 53.0569 77.2644 52.3938 76.9996 51.8117L66.6431 29.2506L65.2866 26.2703C65.0175 25.6902 64.5296 25.2397 63.9291 25.017C63.3286 24.7943 62.6643 24.8174 62.0809 25.0814L17.1349 45.6119C16.553 45.8793 16.1005 46.3653 15.876 46.9641C15.6516 47.5629 15.6734 48.226 15.9367 48.8088Z" fill="#08AF24"/>
<path opacity="0.1" d="M15.9367 48.8088L27.6564 74.3525C27.9251 74.933 28.413 75.3839 29.0136 75.6066C29.6143 75.8294 30.2788 75.806 30.8622 75.5415L32.7228 74.6932L75.8059 55.0086C76.3879 54.7414 76.8401 54.2551 77.0638 53.656C77.2875 53.0569 77.2644 52.3938 76.9996 51.8117L66.6431 29.2506L65.2866 26.2703C65.0175 25.6902 64.5296 25.2397 63.9291 25.017C63.3286 24.7943 62.6643 24.8174 62.0809 25.0814L17.1349 45.6119C16.553 45.8793 16.1005 46.3653 15.876 46.9641C15.6516 47.5629 15.6734 48.226 15.9367 48.8088Z" fill="white"/>
<path d="M26.4683 71.7627L75.8098 49.2188L70.0352 36.6318L20.6936 59.1757L26.4683 71.7627Z" fill="#08AF24"/>
<path opacity="0.3" d="M26.4683 71.7627L75.8098 49.2188L70.0352 36.6318L20.6936 59.1757L26.4683 71.7627Z" fill="white"/>
<path d="M38.8776 61.2053L70.0583 46.959L67.9917 42.4543L36.811 56.7006L38.8776 61.2053Z" fill="#08AF24"/>
<path opacity="0.8" d="M38.8776 61.2053L70.0583 46.959L67.9917 42.4543L36.811 56.7006L38.8776 61.2053Z" fill="white"/>
<path d="M21.7949 61.582L71.1365 39.0381L68.0553 32.322L18.7137 54.8659L21.7949 61.582Z" fill="#08AF24"/>
<path opacity="0.3" d="M21.7949 61.582L71.1365 39.0381L68.0553 32.322L18.7137 54.8659L21.7949 61.582Z" fill="black"/>
<g style="mix-blend-mode:multiply">
<path d="M22.6375 49.1298L32.7227 74.6847L75.8058 55.0002C76.3878 54.7329 76.8401 54.2466 77.0638 53.6475C77.2874 53.0485 77.2643 52.3854 76.9995 51.8033L66.643 29.2422L24.003 46.0005C23.4074 46.2364 22.9295 46.6979 22.6737 47.2842C22.4178 47.8704 22.4048 48.534 22.6375 49.1298Z" fill="#08AF24"/>
</g>
<path d="M79.663 41.0522L79.4497 41.127L79.8027 42.1295L80.016 42.0547L79.663 41.0522Z" fill="#08AF24"/>
<path opacity="0.1" d="M79.663 41.0522L79.4497 41.127L79.8027 42.1295L80.016 42.0547L79.663 41.0522Z" fill="white"/>
<path d="M77.881 36.0102L77.6677 36.085L79.058 40.0358L79.2713 39.961L77.881 36.0102Z" fill="#08AF24"/>
<path opacity="0.1" d="M77.881 36.0102L77.6677 36.085L79.058 40.0358L79.2713 39.961L77.881 36.0102Z" fill="white"/>
<path d="M25.6375 46.0883L72.2768 29.7428C72.8818 29.5326 73.5456 29.5701 74.1231 29.847C74.7005 30.124 75.1446 30.6178 75.3582 31.2205L84.686 57.7275C84.8968 58.3313 84.8596 58.9939 84.5826 59.5704C84.3056 60.147 83.8112 60.5907 83.2075 60.8049L36.5682 77.1503C35.9628 77.3599 35.299 77.3222 34.7214 77.0454C34.1437 76.7686 33.6992 76.2751 33.4846 75.6726L24.1567 49.1656C23.9461 48.5615 23.9836 47.8987 24.261 47.3221C24.5385 46.7455 25.0334 46.3019 25.6375 46.0883Z" fill="#08AF24"/>
<path opacity="0.1" d="M25.6375 46.0883L72.2768 29.7428C72.8818 29.5326 73.5456 29.5701 74.1231 29.847C74.7005 30.124 75.1446 30.6178 75.3582 31.2205L84.686 57.7275C84.8968 58.3313 84.8596 58.9939 84.5826 59.5704C84.3056 60.147 83.8112 60.5907 83.2075 60.8049L36.5682 77.1503C35.9628 77.3599 35.299 77.3222 34.7214 77.0454C34.1437 76.7686 33.6992 76.2751 33.4846 75.6726L24.1567 49.1656C23.9461 48.5615 23.9836 47.8987 24.261 47.3221C24.5385 46.7455 25.0334 46.3019 25.6375 46.0883Z" fill="white"/>
<path d="M31.785 70.8393L82.9866 52.8955L78.9288 41.3645L27.7272 59.3083L31.785 70.8393Z" fill="#08AF24"/>
<path opacity="0.3" d="M31.785 70.8393L82.9866 52.8955L78.9288 41.3645L27.7272 59.3083L31.785 70.8393Z" fill="white"/>
<path d="M62.7947 41.1077L73.3789 37.3984L72.7999 35.753L62.2157 39.4622L62.7947 41.1077Z" fill="#08AF24"/>
<path opacity="0.8" d="M62.7947 41.1077L73.3789 37.3984L72.7999 35.753L62.2157 39.4622L62.7947 41.1077Z" fill="white"/>
<path d="M71.7022 59.7386L80.1938 56.7627L79.8912 55.9027L71.3996 58.8786L71.7022 59.7386Z" fill="#08AF24"/>
<path opacity="0.8" d="M71.7022 59.7386L80.1938 56.7627L79.8912 55.9027L71.3996 58.8786L71.7022 59.7386Z" fill="white"/>
<path d="M69.8299 62.244L80.7725 58.4092L80.4698 57.5492L69.5273 61.384L69.8299 62.244Z" fill="#08AF24"/>
<path opacity="0.8" d="M69.8299 62.244L80.7725 58.4092L80.4698 57.5492L69.5273 61.384L69.8299 62.244Z" fill="white"/>
<path d="M36.6318 73.8784L42.103 71.9609L41.4521 70.1111L35.9808 72.0286L36.6318 73.8784Z" fill="#08AF24"/>
<path opacity="0.8" d="M36.6318 73.8784L42.103 71.9609L41.4521 70.1111L35.9808 72.0286L36.6318 73.8784Z" fill="white"/>
<path d="M70.7053 54.2669L77.0942 52.0288C77.431 51.9092 77.7069 51.6617 77.8618 51.3402C78.0168 51.0187 78.0383 50.6491 77.9217 50.3119C77.8018 49.9758 77.5538 49.7005 77.2316 49.5459C76.9095 49.3912 76.5392 49.3698 76.2012 49.4862L69.8101 51.7265C69.4733 51.8461 69.1974 52.0936 69.0425 52.4151C68.8875 52.7366 68.866 53.1061 68.9827 53.4434C69.103 53.7796 69.3515 54.0548 69.6741 54.209C69.9968 54.3633 70.3674 54.384 70.7053 54.2669Z" fill="#08AF24"/>
<path d="M59.7612 58.1018L66.1523 55.8615C66.4866 55.7414 66.7603 55.4952 66.9146 55.1758C67.0689 54.8565 67.0915 54.4894 66.9775 54.1536C66.8572 53.8179 66.609 53.5432 66.2869 53.389C65.9648 53.2348 65.5947 53.2137 65.2571 53.3302L58.8682 55.5705C58.5314 55.6901 58.2555 55.9376 58.1006 56.2591C57.9456 56.5806 57.9241 56.9501 58.0408 57.2874C58.1629 57.6214 58.4118 57.8941 58.7337 58.0465C59.0556 58.1989 59.4247 58.2188 59.7612 58.1018Z" fill="#08AF24"/>
<path d="M48.8239 61.9378L55.2151 59.6975C55.5485 59.5764 55.8212 59.3299 55.9746 59.0106C56.128 58.6913 56.1499 58.3248 56.0357 57.9896C55.9154 57.6539 55.6673 57.3791 55.3451 57.2249C55.023 57.0707 54.653 57.0496 54.3153 57.1661L47.9196 59.3974C47.5833 59.5175 47.3079 59.7651 47.1534 60.0866C46.9989 60.408 46.9777 60.7773 47.0945 61.1143C47.2147 61.4521 47.4643 61.7285 47.7886 61.8829C48.1128 62.0373 48.4852 62.057 48.8239 61.9378Z" fill="#08AF24"/>
<path d="M37.875 65.7727L44.2661 63.5324C44.6008 63.4127 44.875 63.1667 45.0297 62.8473C45.1845 62.5279 45.2074 62.1606 45.0935 61.8245C44.9732 61.4888 44.725 61.2141 44.4029 61.0599C44.0808 60.9057 43.7107 60.8846 43.3731 61.0011L36.982 63.2414C36.6452 63.361 36.3693 63.6085 36.2144 63.93C36.0594 64.2515 36.0379 64.621 36.1545 64.9583C36.2766 65.2923 36.5255 65.565 36.8475 65.7174C37.1694 65.8698 37.5385 65.8897 37.875 65.7727Z" fill="#08AF24"/>
<g opacity="0.8">
<path opacity="0.8" d="M70.7056 54.2669L77.0945 52.0288C77.4313 51.9092 77.7071 51.6617 77.8621 51.3402C78.017 51.0187 78.0385 50.6491 77.9219 50.3119C77.802 49.9758 77.5541 49.7005 77.2319 49.5459C76.9097 49.3912 76.5394 49.3698 76.2015 49.4862L69.8103 51.7265C69.4735 51.8461 69.1977 52.0936 69.0427 52.4151C68.8878 52.7366 68.8663 53.1061 68.9829 53.4434C69.1032 53.7796 69.3517 54.0548 69.6744 54.209C69.997 54.3633 70.3677 54.384 70.7056 54.2669Z" fill="white"/>
<path opacity="0.8" d="M59.7612 58.1028L66.1523 55.8625C66.4866 55.7424 66.7603 55.4962 66.9146 55.1768C67.0689 54.8574 67.0915 54.4904 66.9775 54.1546C66.8572 53.8189 66.609 53.5441 66.2869 53.39C65.9648 53.2358 65.5947 53.2146 65.2571 53.3311L58.8682 55.5714C58.5314 55.6911 58.2555 55.9385 58.1006 56.26C57.9456 56.5815 57.9241 56.9511 58.0408 57.2883C58.1629 57.6224 58.4118 57.8951 58.7337 58.0475C59.0556 58.1999 59.4247 58.2197 59.7612 58.1028Z" fill="white"/>
<path opacity="0.8" d="M48.8237 61.9378L55.2148 59.6974C55.5483 59.5764 55.8209 59.3299 55.9743 59.0106C56.1277 58.6913 56.1497 58.3248 56.0355 57.9896C55.9152 57.6539 55.667 57.3791 55.3449 57.2249C55.0228 57.0707 54.6527 57.0496 54.3151 57.1661L47.9194 59.3974C47.583 59.5174 47.3077 59.7651 47.1532 60.0866C46.9987 60.408 46.9775 60.7773 47.0942 61.1143C47.2145 61.4521 47.4641 61.7285 47.7883 61.8829C48.1126 62.0373 48.4849 62.057 48.8237 61.9378Z" fill="white"/>
<path opacity="0.8" d="M37.875 65.7727L44.2661 63.5324C44.6008 63.4127 44.875 63.1667 45.0297 62.8473C45.1845 62.5279 45.2074 62.1606 45.0935 61.8245C44.9732 61.4888 44.725 61.2141 44.4029 61.0599C44.0808 60.9057 43.7107 60.8846 43.3731 61.0011L36.982 63.2414C36.6452 63.361 36.3693 63.6085 36.2144 63.93C36.0594 64.2515 36.0379 64.621 36.1545 64.9583C36.2766 65.2923 36.5255 65.565 36.8475 65.7174C37.1694 65.8698 37.5385 65.8897 37.875 65.7727Z" fill="white"/>
</g>
<path d="M70.137 49.1354L75.8237 47.1424C76.3067 46.9732 76.5607 46.4452 76.3911 45.9632L75.2061 42.5956C75.0365 42.1136 74.5074 41.8601 74.0244 42.0294L68.3377 44.0223C67.8547 44.1916 67.6007 44.7195 67.7703 45.2015L68.9553 48.5691C69.125 49.0511 69.654 49.3046 70.137 49.1354Z" fill="#08AF24"/>
<path opacity="0.3" d="M70.137 49.1354L75.8237 47.1424C76.3067 46.9732 76.5607 46.4452 76.3911 45.9632L75.2061 42.5956C75.0365 42.1136 74.5074 41.8601 74.0244 42.0294L68.3377 44.0223C67.8547 44.1916 67.6007 44.7195 67.7703 45.2015L68.9553 48.5691C69.125 49.0511 69.654 49.3046 70.137 49.1354Z" fill="black"/>
<path d="M36.6159 52.6216C35.7956 52.6218 35.005 52.3146 34.4008 51.7608C33.7966 51.207 33.4227 50.447 33.3533 49.6312C33.2839 48.8154 33.5239 48.0034 34.0259 47.3558C34.5279 46.7083 35.2552 46.2724 36.0639 46.1346C36.8726 45.9967 37.7036 46.1669 38.3926 46.6114C39.0815 47.0559 39.578 47.7424 39.7839 48.5349C39.9898 49.3274 39.89 50.1682 39.5043 50.8907C39.1186 51.6133 38.475 52.165 37.7011 52.4366C37.3525 52.5592 36.9856 52.6217 36.6159 52.6216ZM36.6159 46.3045C36.2687 46.3052 35.9241 46.3639 35.5963 46.4782C34.8284 46.7476 34.199 47.3103 33.8467 48.0427C33.4944 48.775 33.448 49.617 33.7177 50.3835C33.9046 50.9128 34.2337 51.3807 34.669 51.736C35.1043 52.0913 35.6291 52.3203 36.1861 52.398C36.743 52.4758 37.3106 52.3993 37.827 52.1769C38.3433 51.9544 38.7884 51.5947 39.1137 51.1369C39.439 50.6791 39.6319 50.1409 39.6714 49.581C39.7109 49.0212 39.5954 48.4613 39.3376 47.9626C39.0798 47.4638 38.6896 47.0453 38.2096 46.7529C37.7296 46.4605 37.1783 46.3054 36.6159 46.3045Z" fill="#08AF24"/>
<path opacity="0.8" d="M36.6159 52.6216C35.7956 52.6218 35.005 52.3146 34.4008 51.7608C33.7966 51.207 33.4227 50.447 33.3533 49.6312C33.2839 48.8154 33.5239 48.0034 34.0259 47.3558C34.5279 46.7083 35.2552 46.2724 36.0639 46.1346C36.8726 45.9967 37.7036 46.1669 38.3926 46.6114C39.0815 47.0559 39.578 47.7424 39.7839 48.5349C39.9898 49.3274 39.89 50.1682 39.5043 50.8907C39.1186 51.6133 38.475 52.165 37.7011 52.4366C37.3525 52.5592 36.9856 52.6217 36.6159 52.6216ZM36.6159 46.3045C36.2687 46.3052 35.9241 46.3639 35.5963 46.4782C34.8284 46.7476 34.199 47.3103 33.8467 48.0427C33.4944 48.775 33.448 49.617 33.7177 50.3835C33.9046 50.9128 34.2337 51.3807 34.669 51.736C35.1043 52.0913 35.6291 52.3203 36.1861 52.398C36.743 52.4758 37.3106 52.3993 37.827 52.1769C38.3433 51.9544 38.7884 51.5947 39.1137 51.1369C39.439 50.6791 39.6319 50.1409 39.6714 49.581C39.7109 49.0212 39.5954 48.4613 39.3376 47.9626C39.0798 47.4638 38.6896 47.0453 38.2096 46.7529C37.7296 46.4605 37.1783 46.3054 36.6159 46.3045Z" fill="white"/>
<path d="M28.9474 52.0488C29.1558 52.6374 29.5343 53.1511 30.0351 53.5252C30.5359 53.8992 31.1366 54.1168 31.7612 54.1504C32.3858 54.184 33.0065 54.0322 33.5447 53.714C34.0829 53.3959 34.5145 52.9257 34.7852 52.3629C35.0558 51.8001 35.1532 51.1699 35.0652 50.5519C34.9772 49.9338 34.7076 49.3557 34.2905 48.8904C33.8734 48.4252 33.3275 48.0937 32.7218 47.9379C32.1161 47.7821 31.4776 47.8088 30.8872 48.0148C30.494 48.152 30.1318 48.3653 29.8213 48.6425C29.5109 48.9196 29.2583 49.2552 29.0781 49.6299C28.8979 50.0047 28.7936 50.4113 28.7712 50.8264C28.7488 51.2414 28.8087 51.6568 28.9474 52.0488Z" fill="#08AF24"/>
<path opacity="0.8" d="M28.9474 52.0488C29.1558 52.6374 29.5343 53.1511 30.0351 53.5252C30.5359 53.8992 31.1366 54.1168 31.7612 54.1504C32.3858 54.184 33.0065 54.0322 33.5447 53.714C34.0829 53.3959 34.5145 52.9257 34.7852 52.3629C35.0558 51.8001 35.1532 51.1699 35.0652 50.5519C34.9772 49.9338 34.7076 49.3557 34.2905 48.8904C33.8734 48.4252 33.3275 48.0937 32.7218 47.9379C32.1161 47.7821 31.4776 47.8088 30.8872 48.0148C30.494 48.152 30.1318 48.3653 29.8213 48.6425C29.5109 48.9196 29.2583 49.2552 29.0781 49.6299C28.8979 50.0047 28.7936 50.4113 28.7712 50.8264C28.7488 51.2414 28.8087 51.6568 28.9474 52.0488Z" fill="white"/>
</svg>
