<svg width="80" height="80" viewBox="0 0 80 80" fill="none" xmlns="http://www.w3.org/2000/svg">
<path d="M76.3549 26.7428C83.0601 42.8308 53.0238 54.2603 36.2096 53.7517C14.935 53.1086 1.82062 43.0655 0.108874 25.4541C-1.5882 8.00163 16.884 -4.24714 32.5196 1.3845C40.2249 4.15998 46.3211 10.1022 54.0264 13.0293C63.1745 16.5017 72.1661 16.69 76.3549 26.7428Z" fill="#08AF24"/>
<path opacity="0.9" d="M76.3549 26.7428C83.0601 42.8308 53.0238 54.2603 36.2096 53.7517C14.935 53.1086 1.82062 43.0655 0.108874 25.4541C-1.5882 8.00163 16.884 -4.24714 32.5196 1.3845C40.2249 4.15998 46.3211 10.1022 54.0264 13.0293C63.1745 16.5017 72.1661 16.69 76.3549 26.7428Z" fill="white"/>
<path d="M27.0861 11.6252C27.9982 9.38284 27.6705 6.65139 25.0833 6.04005C24.5132 5.89318 23.9167 5.88192 23.3414 6.00719C22.7662 6.13246 22.2283 6.39077 21.7709 6.7614C21.3135 7.13204 20.9493 7.60468 20.7075 8.14146C20.4657 8.67823 20.353 9.26418 20.3785 9.85235C20.4812 12.2977 22.0902 14.3347 19.2707 16.1076C16.4513 17.8804 16.752 23.2235 22.2052 22.1916C27.6583 21.1597 24.7117 18.3548 24.7117 18.3548C24.7117 18.3548 23.374 19.4455 22.9437 18.3353C22.3984 16.8974 26.0297 14.2491 27.0861 11.6252Z" fill="#263238"/>
<path d="M17.4904 18.9812L17.3706 18.9543C17.735 17.3233 18.3072 16.9027 18.9112 16.4576C19.5152 16.0126 20.0874 15.5895 20.5496 13.9854C20.7672 13.2297 20.6303 12.3934 20.4958 11.5865C20.3246 10.557 20.1485 9.4908 20.6792 8.53711L20.7843 8.59824C20.2757 9.5128 20.4493 10.5545 20.6156 11.5669C20.7525 12.3885 20.8944 13.2371 20.6669 14.0123C20.195 15.6555 19.5788 16.1079 18.9845 16.5481C18.3903 16.9882 17.845 17.3966 17.4904 18.9812Z" fill="#263238"/>
<path d="M34.0308 23.9424C34.0479 24.0255 34.0773 24.1502 34.1042 24.2627L34.1898 24.6075C34.2485 24.8398 34.3145 25.0721 34.383 25.3044C34.5223 25.7666 34.6715 26.2337 34.8329 26.6934C35.1557 27.6185 35.5246 28.5269 35.9382 29.4151L36.2463 30.0582C36.2985 30.1732 36.3724 30.277 36.464 30.3639C36.7388 30.5849 37.0668 30.7299 37.4152 30.7845C38.3295 30.9323 39.2617 30.9323 40.176 30.7845L40.5061 31.8238C40.2531 31.9353 39.9944 32.0332 39.7309 32.1172C39.4692 32.2043 39.2031 32.2777 38.9338 32.3373C38.3728 32.4665 37.7971 32.5199 37.222 32.4962C36.5453 32.4772 35.8873 32.2697 35.322 31.8971C35.0039 31.6765 34.7357 31.3916 34.5346 31.0608L34.4954 30.9997L34.471 30.9581L34.4221 30.8701L34.3218 30.6989L34.1238 30.3517C33.612 29.419 33.1627 28.4534 32.7788 27.4612C32.593 26.9722 32.4096 26.4611 32.2604 25.9451C32.187 25.7006 32.1137 25.4292 32.0477 25.1651C31.9816 24.901 31.9229 24.6515 31.8691 24.3385L34.0308 23.9424Z" fill="#FFC3BD"/>
<path d="M32.1431 20.5239C34.6105 21.6243 34.5885 25.3217 34.5885 25.3217L31.989 26.8843C31.989 26.8843 30.0328 23.989 30.1795 22.6734C30.3238 21.3015 30.7444 19.9052 32.1431 20.5239Z" fill="#08AF24"/>
<path opacity="0.2" d="M32.5317 23.6785C31.8568 22.9962 31.2626 23.7836 30.7197 24.6566C31.092 25.4285 31.516 26.1744 31.9889 26.8892L33.055 26.2485C33.2653 25.4342 33.2042 24.3631 32.5317 23.6785Z" fill="black"/>
<path d="M39.9191 30.8774L41.6553 30.0117L41.6749 32.2835C41.6749 32.2835 40.3788 32.5084 39.5156 31.5988L39.9191 30.8774Z" fill="#FFC3BD"/>
<path d="M43.5211 30.4152L43.2228 32.1025L41.6748 32.2834L41.6553 30.0117L43.5211 30.4152Z" fill="#FFC3BD"/>
<path d="M24.0269 77.8455L26.1739 78.0509L27.174 73.055L25.027 72.8496L24.0269 77.8455Z" fill="#FFC3BD"/>
<path d="M9.94897 71.9891L11.695 73.2607L14.6074 69.128L12.8589 67.8564L9.94897 71.9891Z" fill="#FFC3BD"/>
<path d="M12.3357 72.4657L10.8978 70.4972C10.8739 70.4624 10.8379 70.4376 10.7968 70.4276C10.7558 70.4177 10.7125 70.4233 10.6753 70.4434L8.9513 71.358C8.90869 71.3827 8.87178 71.4162 8.84299 71.4561C8.81421 71.4961 8.7942 71.5417 8.78427 71.59C8.77435 71.6382 8.77473 71.688 8.78539 71.7361C8.79605 71.7842 8.81676 71.8295 8.84615 71.8691C9.35967 72.5464 9.64088 72.8472 10.2742 73.7153C10.6655 74.2484 11.448 75.4833 11.986 76.2194C12.524 76.9554 13.2796 76.4639 13.1231 76.1093C12.4139 74.5174 12.3895 73.5857 12.4433 72.8399C12.4535 72.7063 12.4153 72.5735 12.3357 72.4657Z" fill="#263238"/>
<path d="M26.4577 77.4026H23.8803C23.8339 77.4027 23.7889 77.4181 23.7522 77.4464C23.7155 77.4747 23.6892 77.5143 23.6773 77.5591L23.1173 79.5912C23.1036 79.6393 23.1013 79.6899 23.1106 79.7391C23.1199 79.7882 23.1407 79.8345 23.1711 79.8742C23.2015 79.9139 23.2408 79.9459 23.2858 79.9677C23.3308 79.9894 23.3803 80.0004 23.4303 79.9996C24.34 79.9996 24.7704 79.9996 25.9026 79.9996H29.3676C30.3091 79.9996 30.5047 79.0484 30.1159 78.9603C28.3699 78.574 27.3625 78.0409 26.822 77.5322C26.7213 77.4445 26.5911 77.3982 26.4577 77.4026Z" fill="#263238"/>
<path opacity="0.2" d="M27.174 73.0579L26.6581 75.6329H24.4695L25.027 72.8525L27.174 73.0579Z" fill="black"/>
<path opacity="0.2" d="M12.8591 67.8564L14.6075 69.1305L13.1061 71.2604L11.3577 69.9863L12.8591 67.8564Z" fill="black"/>
<path d="M33.1603 22.4726C33.0087 24.1232 32.461 27.3633 30.8593 33.6943L22.0706 32.9338C22.4937 29.635 22.6918 27.4978 21.8652 21.2523C21.8384 21.0459 21.8542 20.8361 21.9118 20.6361C21.9695 20.436 22.0676 20.25 22.2001 20.0894C22.3327 19.9289 22.4968 19.7974 22.6824 19.7029C22.8679 19.6085 23.0709 19.5533 23.2787 19.5406C23.912 19.5063 24.6652 19.4843 25.4208 19.5137C26.7576 19.5337 28.0912 19.6489 29.4116 19.8585C30.1868 19.9979 31.0133 20.1984 31.6858 20.3744C32.1399 20.4934 32.5372 20.7694 32.8072 21.1535C33.0771 21.5376 33.2022 22.005 33.1603 22.4726Z" fill="#08AF24"/>
<path opacity="0.2" d="M22.0901 23.0821C22.2026 24.0602 22.2857 24.9332 22.3346 25.7157C23.144 25.6448 23.7407 24.7571 23.8018 22.9011C23.4986 22.0037 22.7772 22.3289 22.0901 23.0821Z" fill="black"/>
<path d="M30.8593 33.6942C30.8593 33.6942 33.8328 46.8502 31.8374 56.1255C30.5096 62.3366 27.5532 74.8837 27.5532 74.8837L23.8044 74.7884C23.8044 74.7884 25.5944 61.6202 26.3452 56.4482C27.629 47.5912 24.4133 33.1465 24.4133 33.1465L30.8593 33.6942Z" fill="#263238"/>
<path opacity="0.2" d="M27.4308 36.3525L25.5552 39.309C26.12 42.8144 26.4784 46.3499 26.6287 49.8973C29.2648 45.1778 28.0152 38.8492 27.4308 36.3525Z" fill="black"/>
<path d="M28.0912 75.0796L23.4597 74.9623L23.7287 73.5391L28.4531 73.7616L28.0912 75.0796Z" fill="#08AF24"/>
<path d="M28.9371 33.5557C28.9371 33.5557 27.1936 47.5064 23.4106 55.1237C20.3564 61.2762 13.9667 71.0551 13.9667 71.0551L11.6313 69.1845C11.6313 69.1845 15.6271 58.3687 17.8963 54.2825C23.4644 44.2565 18.9136 36.6148 22.0706 32.9346L28.9371 33.5557Z" fill="#263238"/>
<path d="M65.5089 21.1401L23.9437 38.604C22.6389 39.1522 22.0255 40.6545 22.5737 41.9593L32.4599 65.489C33.0081 66.7938 34.5103 67.4072 35.8152 66.859L77.3804 49.3951C78.6853 48.8468 79.2986 47.3446 78.7504 46.0397L68.8643 22.5101C68.316 21.2052 66.8138 20.5919 65.5089 21.1401Z" fill="#08AF24"/>
<path opacity="0.1" d="M65.5089 21.1401L23.9437 38.604C22.6389 39.1522 22.0255 40.6545 22.5737 41.9593L32.4599 65.489C33.0081 66.7938 34.5103 67.4072 35.8152 66.859L77.3804 49.3951C78.6853 48.8468 79.2986 47.3446 78.7504 46.0397L68.8643 22.5101C68.316 21.2052 66.8138 20.5919 65.5089 21.1401Z" fill="black"/>
<path opacity="0.2" d="M35.4093 37.5563L27.2708 40.9757C26.6432 41.2394 26.3483 41.9618 26.6119 42.5894L28.3273 46.6722C28.591 47.2997 29.3134 47.5947 29.941 47.331L38.0795 43.9115C38.707 43.6479 39.002 42.9254 38.7384 42.2979L37.0229 38.2151C36.7593 37.5876 36.0368 37.2926 35.4093 37.5563Z" fill="white"/>
<path opacity="0.4" d="M41.12 53.6953L33.1461 57.0456C32.9107 57.1445 32.8001 57.4154 32.899 57.6507L33.5043 59.0913C33.6031 59.3266 33.8741 59.4372 34.1094 59.3384L42.0834 55.988C42.3187 55.8892 42.4293 55.6183 42.3304 55.3829L41.7251 53.9423C41.6263 53.707 41.3554 53.5964 41.12 53.6953Z" fill="white"/>
<path opacity="0.4" d="M51.4945 49.3379L43.5206 52.6882C43.2852 52.787 43.1746 53.058 43.2735 53.2933L43.8788 54.7339C43.9777 54.9692 44.2486 55.0798 44.4839 54.9809L52.4579 51.6306C52.6932 51.5318 52.8038 51.2608 52.7049 51.0255L52.0997 49.5849C52.0008 49.3496 51.7299 49.239 51.4945 49.3379Z" fill="white"/>
<path opacity="0.4" d="M61.8666 44.9795L53.8926 48.3298C53.6573 48.4286 53.5467 48.6996 53.6456 48.9349L54.2508 50.3755C54.3497 50.6108 54.6206 50.7214 54.856 50.6225L62.8299 47.2722C63.0652 47.1734 63.1759 46.9024 63.077 46.6671L62.4717 45.2265C62.3728 44.9912 62.1019 44.8806 61.8666 44.9795Z" fill="white"/>
<path opacity="0.4" d="M72.2414 40.622L64.2674 43.9723C64.0321 44.0712 63.9215 44.3421 64.0203 44.5775L64.6256 46.0181C64.7245 46.2534 64.9954 46.364 65.2307 46.2651L73.2047 42.9148C73.44 42.8159 73.5506 42.545 73.4517 42.3097L72.8465 40.8691C72.7476 40.6338 72.4767 40.5232 72.2414 40.622Z" fill="white"/>
<g opacity="0.6">
<path opacity="0.6" d="M65.0267 32.5463C66.8801 32.1092 68.0282 30.2524 67.5911 28.399C67.154 26.5456 65.2972 25.3974 63.4438 25.8345C61.5904 26.2716 60.4422 28.1285 60.8793 29.9819C61.3164 31.8353 63.1733 32.9834 65.0267 32.5463Z" fill="#263238"/>
<path opacity="0.6" d="M62.8152 33.0058C63.9575 31.4822 63.6484 29.3211 62.1248 28.1788C60.6012 27.0365 58.4401 27.3456 57.2978 28.8692C56.1555 30.3928 56.4646 32.5539 57.9882 33.6962C59.5118 34.8385 61.6729 34.5294 62.8152 33.0058Z" fill="white"/>
</g>
<path d="M14.2111 71.3139L11.2156 69.047L11.9516 67.7314L15.1355 70.2012L14.2111 71.3139Z" fill="#08AF24"/>
<path d="M21.9827 32.4084L21.5181 33.1616C21.4814 33.2178 21.5499 33.2887 21.6501 33.2961L30.8691 34.0933C30.9474 34.0933 31.0158 34.0664 31.0256 34.0174L31.1723 33.2374C31.1846 33.1836 31.1185 33.1322 31.033 33.1249L22.1319 32.3546C22.1045 32.3502 22.0764 32.3528 22.0503 32.3623C22.0243 32.3717 22.001 32.3875 21.9827 32.4084Z" fill="#08AF24"/>
<path opacity="0.5" d="M21.9827 32.4084L21.5181 33.1616C21.4814 33.2178 21.5499 33.2887 21.6501 33.2961L30.8691 34.0933C30.9474 34.0933 31.0158 34.0664 31.0256 34.0174L31.1723 33.2374C31.1846 33.1836 31.1185 33.1322 31.033 33.1249L22.1319 32.3546C22.1045 32.3502 22.0764 32.3528 22.0503 32.3623C22.0243 32.3717 22.001 32.3875 21.9827 32.4084Z" fill="black"/>
<path d="M23.0952 33.5065L22.8507 33.4869C22.8042 33.4869 22.77 33.4551 22.7749 33.4258L22.9754 32.4134C22.9754 32.3816 23.0243 32.3621 23.0732 32.367L23.3177 32.3865C23.3667 32.3865 23.4009 32.4183 23.3935 32.4477L23.193 33.46C23.1832 33.4894 23.1392 33.5114 23.0952 33.5065Z" fill="#08AF24"/>
<path d="M30.1868 34.1202L29.9422 34.1006C29.8958 34.1006 29.8615 34.0688 29.8664 34.0395L30.0669 33.0271C30.0757 33.0095 30.0901 32.9954 30.1079 32.987C30.1256 32.9786 30.1456 32.9764 30.1648 32.9806L30.4093 33.0002C30.4582 33.0002 30.4924 33.032 30.4851 33.0613L30.2846 34.0737C30.2821 34.1079 30.2381 34.125 30.1868 34.1202Z" fill="#08AF24"/>
<path d="M26.6409 33.8145L26.3964 33.7925C26.3475 33.7925 26.3132 33.7607 26.3206 33.7314L26.5211 32.719C26.5211 32.6897 26.57 32.6677 26.6165 32.6726L26.861 32.6946C26.9075 32.6946 26.9417 32.7264 26.9368 32.7557L26.7363 33.7681C26.7314 33.7974 26.6898 33.817 26.6409 33.8145Z" fill="#08AF24"/>
<path d="M12.8835 73.5536C12.8559 73.5583 12.8278 73.5583 12.8003 73.5536C12.5338 73.4998 12.3112 73.0474 12.1939 72.7833C12.1892 72.7764 12.1868 72.7683 12.1868 72.7601C12.1868 72.7518 12.1892 72.7437 12.1939 72.7368C12.2002 72.7321 12.2079 72.7295 12.2159 72.7295C12.2238 72.7295 12.2315 72.7321 12.2379 72.7368C12.321 72.7662 13.0497 73.0474 13.106 73.3139C13.1127 73.3428 13.1113 73.373 13.1018 73.4011C13.0923 73.4292 13.0751 73.454 13.0522 73.4729C13.0059 73.517 12.9468 73.5453 12.8835 73.5536ZM12.3137 72.8395C12.48 73.2039 12.6658 73.4362 12.8174 73.4655C12.8517 73.4707 12.8867 73.4672 12.9192 73.4552C12.9516 73.4432 12.9806 73.4232 13.0033 73.3971C13.0155 73.388 13.0248 73.3754 13.03 73.3611C13.0352 73.3468 13.0361 73.3312 13.0326 73.3164C12.9984 73.1525 12.5656 72.9422 12.3137 72.8395Z" fill="#08AF24"/>
<path d="M12.9055 72.8735C12.6731 72.9023 12.4371 72.8772 12.216 72.8002C12.2092 72.7971 12.2034 72.7924 12.1991 72.7864C12.1948 72.7803 12.1922 72.7733 12.1915 72.7659C12.1905 72.7585 12.1916 72.7509 12.1946 72.744C12.1977 72.7371 12.2025 72.7312 12.2086 72.7268C12.2306 72.7121 12.7344 72.3453 13.0376 72.4138C13.075 72.4209 13.1105 72.4362 13.1413 72.4586C13.1722 72.4811 13.1977 72.51 13.2161 72.5434C13.2403 72.574 13.2535 72.6119 13.2535 72.651C13.2535 72.69 13.2403 72.7279 13.2161 72.7586C13.1291 72.8318 13.0193 72.8725 12.9055 72.8735ZM12.3358 72.7439C12.5803 72.8148 13.0376 72.8197 13.1501 72.695C13.1696 72.6754 13.1868 72.6436 13.1501 72.5801C13.138 72.5573 13.121 72.5376 13.1002 72.5224C13.0795 72.5071 13.0556 72.4968 13.0303 72.492C12.8248 72.4505 12.4727 72.6534 12.3358 72.7439Z" fill="#08AF24"/>
<path d="M27.602 77.819C27.3649 77.813 27.129 77.7836 26.8978 77.731C26.8899 77.7276 26.8832 77.7219 26.8785 77.7148C26.8738 77.7076 26.8713 77.6992 26.8713 77.6907C26.8713 77.6821 26.8738 77.6737 26.8785 77.6665C26.8832 77.6594 26.8899 77.6537 26.8978 77.6503C27.0054 77.599 27.9395 77.1612 28.1742 77.3275C28.196 77.3414 28.2134 77.3612 28.2242 77.3846C28.235 77.408 28.2389 77.434 28.2354 77.4596C28.2348 77.5074 28.223 77.5545 28.2009 77.597C28.1788 77.6395 28.1471 77.6762 28.1082 77.7041C27.9561 77.7955 27.7787 77.8357 27.602 77.819ZM27.0445 77.6723C27.3233 77.7237 27.8368 77.7921 28.0471 77.6332C28.0743 77.6117 28.0967 77.5847 28.1128 77.5539C28.1288 77.5232 28.1381 77.4893 28.14 77.4547C28.14 77.4205 28.14 77.4058 28.118 77.3984C27.9859 77.308 27.4333 77.5011 27.0445 77.6723Z" fill="#08AF24"/>
<path d="M26.9076 77.7303C26.899 77.7337 26.8894 77.7337 26.8807 77.7303C26.8744 77.7256 26.8696 77.7192 26.867 77.7118C26.8644 77.7044 26.864 77.6963 26.8661 77.6887C26.8661 77.6472 27.0861 76.7252 27.5997 76.7839C27.7268 76.8011 27.7611 76.8622 27.7684 76.9135C27.8002 77.1581 27.2108 77.6227 26.9272 77.7376L26.9076 77.7303ZM27.5483 76.8573C27.2231 76.8573 27.0348 77.3953 26.9712 77.6105C27.2769 77.4491 27.7048 77.0652 27.6779 76.916C27.6779 76.9038 27.6779 76.8695 27.5825 76.8597L27.5483 76.8573Z" fill="#08AF24"/>
<path d="M23.0439 23.1262L22.9143 23.3096L22.7724 23.5175C22.6771 23.6593 22.5817 23.8036 22.4912 23.9527C22.3054 24.2462 22.1367 24.5519 21.9655 24.8575C21.6275 25.4724 21.3301 26.1087 21.0754 26.7625C20.8185 27.4123 20.6037 28.078 20.4322 28.7554L20.3173 29.2445C20.3173 29.2298 20.3026 29.2812 20.3295 29.3741C20.4137 29.6354 20.5365 29.8827 20.6939 30.1077C21.0889 30.6756 21.5324 31.2082 22.0193 31.6996C22.5084 32.218 23.0512 32.7193 23.5916 33.2182C24.1321 33.717 24.6994 34.1963 25.2667 34.6683C25.834 35.1402 26.4136 35.6171 26.9785 36.0768L26.3671 36.9791C25.0573 36.2022 23.7926 35.3515 22.5793 34.4311C21.9679 33.9714 21.3688 33.4872 20.7893 32.9639C20.1816 32.4313 19.6271 31.8408 19.1338 31.2008C18.8381 30.8249 18.6067 30.4027 18.4491 29.9512C18.342 29.637 18.3061 29.3029 18.3439 28.9731V28.9046V28.8679L18.3561 28.7945L18.3806 28.6454L18.4319 28.3495C18.5758 27.5619 18.7785 26.7862 19.0384 26.0289C19.3071 25.2753 19.6249 24.5401 19.9896 23.828C20.173 23.471 20.3736 23.1262 20.5888 22.7863C20.6939 22.6151 20.8039 22.4464 20.9189 22.2777L21.0998 22.0331C21.1634 21.9476 21.2172 21.8718 21.3028 21.7666L23.0439 23.1262Z" fill="#FFC3BD"/>
<path d="M22.8261 19.6807C21.1486 20.1209 19.5298 24.1875 19.5298 24.1875L21.7013 26.1731C21.7013 26.1731 25.1125 23.0626 24.9976 21.659C24.9022 20.4657 24.1735 19.3237 22.8261 19.6807Z" fill="#08AF24"/>
<path opacity="0.2" d="M25.4207 19.4355C25.1134 19.4983 24.8001 19.527 24.4865 19.5211C24.4205 20.7291 25.1957 21.8956 27.1006 23.4606C27.5579 22.035 28.5678 21.7268 28.5678 21.7268L25.4207 19.4355Z" fill="black"/>
<path opacity="0.2" d="M29.4115 19.8203C29.4115 19.8203 29.6341 19.8521 30.1647 19.9744C30.5193 20.5197 30.979 22.1996 29.9348 23.3979C29.5289 21.9306 28.5605 21.7448 28.5605 21.7448L29.4115 19.8203Z" fill="black"/>
<path d="M25.4206 19.4355C25.4206 19.4355 24.9316 19.4355 24.3349 19.4355C23.9803 19.9809 25.2005 21.4921 27.103 23.0571C27.5603 21.6315 28.5702 21.7171 28.5702 21.7171L25.4206 19.4355Z" fill="white"/>
<path d="M29.4115 19.8203C29.4115 19.8203 29.634 19.8521 30.1647 19.9744C30.5193 20.5197 31.2847 21.9967 30.2405 23.1851C29.8346 21.7179 28.5605 21.7375 28.5605 21.7375L29.4115 19.8203Z" fill="white"/>
<path d="M26.2059 15.0459C26.3477 16.3517 26.3941 18.7139 25.4209 19.5062C25.4209 19.5062 25.9271 20.9734 28.5607 21.7364C30.1453 20.8218 29.4117 19.851 29.4117 19.851C28.0105 19.3864 28.1401 18.3276 28.4751 17.3494L26.2059 15.0459Z" fill="#FFC3BD"/>
<path opacity="0.2" d="M27.1302 15.9883L28.4751 17.3503C28.3927 17.5767 28.3305 17.8099 28.2893 18.0473C27.7488 17.9226 26.9663 17.3601 26.959 16.783C26.9689 16.5101 27.0269 16.2411 27.1302 15.9883Z" fill="black"/>
<path d="M29.1791 9.82763C29.607 9.35568 30.4556 9.95723 30.7686 11.1139C31.2381 12.8256 29.986 12.9479 29.3307 12.092C28.6753 11.2362 28.8221 10.2213 29.1791 9.82763Z" fill="#263238"/>
<path d="M30.5046 12.8338C30.934 12.9824 31.34 13.1915 31.7102 13.4549C31.4974 12.9365 31.3067 12.6211 30.5046 12.8338Z" fill="#263238"/>
<path d="M30.7517 12.9138C31.0993 12.8446 31.455 12.8248 31.8081 12.8551C31.4609 12.5885 31.209 12.4565 30.7517 12.9138Z" fill="#263238"/>
<path d="M25.0515 13.0065C25.5968 15.0923 25.7851 15.9873 27.0616 16.8603C28.9861 18.1759 31.429 17.0511 31.5195 14.8429C31.6002 12.8573 30.6954 9.78104 28.4628 9.34576C27.9708 9.24589 27.4614 9.27391 26.9833 9.42715C26.5052 9.58039 26.0745 9.85373 25.7322 10.221C25.3899 10.5883 25.1476 11.0372 25.0285 11.5249C24.9093 12.0126 24.9172 12.5227 25.0515 13.0065Z" fill="#FFC3BD"/>
<path d="M26.0589 10.2555L25.4549 10.9573C25.2737 11.1647 25.018 11.2923 24.7434 11.3124C24.4687 11.3325 24.1972 11.2436 23.9877 11.0649C23.78 10.884 23.652 10.6286 23.6314 10.3539C23.6108 10.0793 23.6992 9.80755 23.8777 9.59771L24.4817 8.89834C24.6629 8.69119 24.9183 8.56356 25.1927 8.54298C25.4672 8.52239 25.7388 8.6105 25.9489 8.7883C26.156 8.96953 26.2836 9.22491 26.3042 9.49938C26.3248 9.77385 26.2367 10.0454 26.0589 10.2555Z" fill="white"/>
<path d="M26.6166 11.0385L25.883 11.4053C25.5819 11.5527 25.2347 11.5751 24.9172 11.4674C24.5996 11.3597 24.3376 11.1308 24.1884 10.8306C24.0408 10.5292 24.0184 10.1816 24.126 9.86367C24.2337 9.54576 24.4626 9.28331 24.763 9.13353L25.4966 8.76673C25.7984 8.61933 26.1462 8.59728 26.4641 8.7054C26.7821 8.81352 27.0444 9.04303 27.1937 9.34383C27.341 9.64523 27.363 9.99268 27.2548 10.3102C27.1467 10.6278 26.9172 10.8896 26.6166 11.0385Z" fill="#08AF24"/>
<path d="M25.6775 14.567C25.6775 14.567 27.1839 14.2222 26.5432 12.0189C26.5193 11.9341 26.5151 11.845 26.5309 11.7583C26.5468 11.6717 26.5823 11.5898 26.6347 11.519C26.6871 11.4482 26.755 11.3903 26.8333 11.3498C26.9115 11.3093 26.998 11.2872 27.086 11.2853C28.7831 11.2389 30.3701 10.8843 30.1452 9.90124C29.864 8.659 25.6359 7.70043 24.8681 10.1873C23.3691 10.537 23.3129 13.491 25.6775 14.567Z" fill="#263238"/>
<path d="M25.6848 14.1321C26.1142 14.2807 26.5201 14.4898 26.8904 14.7532C26.6776 14.2397 26.4869 13.9243 25.6848 14.1321Z" fill="#263238"/>
<path d="M25.9319 14.2177C26.2795 14.1485 26.6351 14.1287 26.9883 14.159C26.6435 13.8974 26.3916 13.7629 25.9319 14.2177Z" fill="#263238"/>
<path d="M24.7093 14.6455C24.9046 15.0139 25.2378 15.29 25.6361 15.4134C26.1667 15.5723 26.4406 15.1028 26.3037 14.5966C26.1789 14.1418 25.7534 13.5133 25.2179 13.5745C25.1014 13.5906 24.9908 13.6354 24.8959 13.7049C24.801 13.7745 24.725 13.8665 24.6745 13.9727C24.6241 14.0789 24.6008 14.1961 24.6069 14.3135C24.613 14.431 24.6482 14.5451 24.7093 14.6455Z" fill="#FFC3BD"/>
<path d="M28.5876 12.9357C28.6219 13.1069 28.7417 13.2292 28.8517 13.2072C28.9618 13.1852 29.0278 13.0262 28.996 12.8551C28.9642 12.6839 28.842 12.5616 28.7295 12.5836C28.617 12.6056 28.5534 12.7621 28.5876 12.9357Z" fill="#263238"/>
<path d="M30.5315 12.5524C30.5657 12.7261 30.6831 12.8459 30.7956 12.8239C30.9081 12.8019 30.9717 12.6454 30.9374 12.4742C30.9032 12.303 30.7858 12.1807 30.6733 12.2028C30.5608 12.2248 30.4972 12.3813 30.5315 12.5524Z" fill="#263238"/>
<path d="M30.627 12.222L31.0158 12.0215C31.0158 12.0215 30.8666 12.3858 30.627 12.222Z" fill="#263238"/>
<path d="M29.864 12.9824C30.0942 13.345 30.3731 13.6741 30.693 13.9606C30.6184 14.0423 30.5267 14.1066 30.4244 14.1489C30.3221 14.1911 30.2118 14.2103 30.1012 14.2051L29.864 12.9824Z" fill="#ED847E"/>
<path d="M29.3064 15.015C28.9446 15.0196 28.5946 14.8858 28.3283 14.6409C28.3203 14.6327 28.3159 14.6217 28.3159 14.6103C28.3159 14.5989 28.3203 14.5879 28.3283 14.5797C28.3365 14.5718 28.3474 14.5674 28.3588 14.5674C28.3702 14.5674 28.3812 14.5718 28.3894 14.5797C28.554 14.7248 28.7505 14.829 28.963 14.8838C29.1754 14.9387 29.3978 14.9425 29.6121 14.8952C29.6231 14.8932 29.6344 14.8957 29.6436 14.9022C29.6528 14.9086 29.659 14.9184 29.661 14.9294C29.6629 14.9404 29.6604 14.9518 29.654 14.961C29.6476 14.9701 29.6378 14.9764 29.6267 14.9783C29.5216 15.002 29.4142 15.0143 29.3064 15.015Z" fill="#263238"/>
<path d="M27.421 12.2681C27.4056 12.2675 27.3905 12.2633 27.377 12.2559C27.3575 12.2442 27.3435 12.2253 27.338 12.2032C27.3325 12.1812 27.336 12.1579 27.3476 12.1385C27.4285 12.0011 27.541 11.885 27.6759 11.7999C27.8107 11.7148 27.964 11.6632 28.1228 11.6494C28.1453 11.6494 28.167 11.658 28.1834 11.6734C28.1998 11.6889 28.2096 11.7101 28.2108 11.7326C28.2112 11.7438 28.2093 11.755 28.2053 11.7655C28.2013 11.776 28.1952 11.7856 28.1875 11.7938C28.1798 11.802 28.1705 11.8086 28.1603 11.8131C28.15 11.8177 28.1389 11.8203 28.1277 11.8206C27.9965 11.835 27.8707 11.8805 27.7605 11.9532C27.6504 12.0259 27.5592 12.1238 27.4944 12.2387C27.4854 12.2492 27.474 12.2573 27.4613 12.2624C27.4485 12.2675 27.4347 12.2695 27.421 12.2681Z" fill="#263238"/>
<path d="M31.072 11.579C31.0584 11.5827 31.044 11.5827 31.0304 11.579C30.9164 11.5118 30.7881 11.4723 30.656 11.4638C30.5239 11.4553 30.3916 11.478 30.2699 11.5301C30.2482 11.5411 30.223 11.5431 30.1998 11.5355C30.1766 11.528 30.1574 11.5115 30.1464 11.4898C30.1354 11.468 30.1335 11.4428 30.141 11.4197C30.1486 11.3965 30.165 11.3773 30.1868 11.3663C30.3332 11.2999 30.4935 11.2699 30.654 11.2789C30.8145 11.2878 30.9705 11.3354 31.1087 11.4176C31.1184 11.423 31.127 11.4302 31.1339 11.4389C31.1408 11.4476 31.1459 11.4577 31.1488 11.4684C31.1518 11.4791 31.1526 11.4903 31.1511 11.5013C31.1497 11.5123 31.1461 11.523 31.1404 11.5326C31.1343 11.5458 31.1247 11.5571 31.1126 11.5652C31.1006 11.5734 31.0865 11.5782 31.072 11.579Z" fill="#263238"/>
<path d="M26.1787 35.7119L28.135 35.8489L27.2523 37.9396C27.2523 37.9396 25.6188 37.4237 25.5527 36.2279L26.1787 35.7119Z" fill="#FFC3BD"/>
<path d="M28.8859 37.0322L27.9396 38.4603L27.2549 37.9394L28.1425 35.8486L28.8859 37.0322Z" fill="#FFC3BD"/>
<path d="M28.6829 12.6038L29.0717 12.4033C29.0717 12.4033 28.9225 12.7677 28.6829 12.6038Z" fill="#263238"/>
</svg>
