<svg width="83" height="80" viewBox="0 0 83 80" fill="none" xmlns="http://www.w3.org/2000/svg">
<path d="M32.0226 34.0677C43.9848 28.2527 68.6922 1.92672 79.6799 22.9267C88.8748 40.4994 68.5382 56.984 56.3627 63.0148C40.5246 70.8628 17.2447 67.7637 4.71281 52.9289C-0.676548 46.5412 -2.62112 37.5104 6.78057 35.8298C9.95259 35.2615 15.3376 37.332 18.9231 37.1514C23.5184 36.9201 28.019 36.0126 32.0226 34.0677Z" fill="#08AF24"/>
<path opacity="0.9" d="M32.0226 34.0677C43.9848 28.2527 68.6922 1.92672 79.6799 22.9267C88.8748 40.4994 68.5382 56.984 56.3627 63.0148C40.5246 70.8628 17.2447 67.7637 4.71281 52.9289C-0.676548 46.5412 -2.62112 37.5104 6.78057 35.8298C9.95259 35.2615 15.3376 37.332 18.9231 37.1514C23.5184 36.9201 28.019 36.0126 32.0226 34.0677Z" fill="white"/>
<path d="M38.756 21.6907C38.2699 22.8735 35.408 22.792 32.4098 21.5541C29.4115 20.3162 27.3724 18.3537 27.8585 17.1709C27.9729 16.8977 28.2985 15.8735 28.624 15.7325C29.7415 15.259 31.8686 16.3228 34.1718 17.2744C36.3165 18.1554 38.7692 18.7303 39.1498 19.8955C39.3785 20.6048 38.8946 21.3537 38.756 21.6907Z" fill="#08AF24"/>
<path opacity="0.2" d="M39.1497 19.8955C39.3323 20.8228 38.9297 21.2677 38.7559 21.6906C38.5822 22.1135 38.074 22.3911 37.3635 22.488C37.2747 22.5031 37.1851 22.5134 37.0951 22.5188C36.5503 22.5509 36.0036 22.5221 35.4651 22.4329C35.3881 22.4329 35.3111 22.4087 35.2319 22.3955C34.5999 22.2819 33.9771 22.1214 33.3688 21.9153L33.1488 21.8404C32.9046 21.7545 32.6539 21.6598 32.4031 21.5563C32.1523 21.4528 31.9147 21.336 31.6794 21.2325L31.477 21.1356C30.9225 20.861 30.3881 20.5474 29.8778 20.1973L29.6974 20.0695C29.252 19.7542 28.8439 19.3892 28.481 18.9814C28.426 18.9197 28.3754 18.8602 28.327 18.7986C27.854 18.1995 27.667 17.6268 27.854 17.1708C27.9772 16.8779 28.2412 15.8757 28.6195 15.7303C29.0849 15.599 29.5774 15.599 30.0428 15.7303L30.2627 15.7832C31.3626 16.0651 32.7484 16.6928 34.1629 17.2765C35.8303 17.966 37.8034 18.6818 38.7713 19.5078C38.8289 19.5564 38.884 19.6078 38.9363 19.662C39.0135 19.734 39.0849 19.8121 39.1497 19.8955Z" fill="black"/>
<g opacity="0.2">
<path opacity="0.2" d="M30.3727 15.594L30.2715 15.779L28.4853 18.9795C28.4303 18.9178 28.3797 18.8583 28.3313 18.7966L30.0471 15.7262L30.1813 15.4883L30.3727 15.594Z" fill="black"/>
</g>
<g opacity="0.2">
<path opacity="0.2" d="M31.7235 16.9001L29.8823 20.2041L29.7019 20.0764L31.5321 16.7988L31.7235 16.9001Z" fill="black"/>
</g>
<g opacity="0.2">
<path opacity="0.2" d="M35.1089 18.7945L33.3689 21.9156L33.1489 21.8407L34.9087 18.6777L35.1089 18.7945Z" fill="black"/>
</g>
<g opacity="0.2">
<path opacity="0.2" d="M33.5338 17.9136L31.6838 21.233L31.4814 21.1361L33.3424 17.7969L33.5338 17.9136Z" fill="black"/>
</g>
<g opacity="0.2">
<path opacity="0.2" d="M37.1611 19.3982L35.4651 22.4335C35.3881 22.4335 35.3111 22.4092 35.2319 22.396L36.9675 19.2881L37.1611 19.3982Z" fill="black"/>
</g>
<path d="M39.1365 20.6601C38.6504 21.8429 35.8237 21.7966 32.8233 20.5566C29.8228 19.3165 27.7859 17.3561 28.2742 16.1733C28.7626 14.9905 31.587 15.0389 34.5875 16.2768C37.5879 17.5147 39.6227 19.4707 39.1365 20.6601Z" fill="#08AF24"/>
<path opacity="0.2" d="M38.116 20.2307C37.7728 21.0655 35.5687 20.9487 33.1951 19.9686C30.8216 18.9884 29.1762 17.5148 29.5194 16.68C29.8625 15.8452 32.0667 15.9619 34.4424 16.9421C36.8181 17.9223 38.4613 19.3959 38.116 20.2307Z" fill="white"/>
<path d="M53.9167 10.9994C54.6998 12.0104 53.2084 14.4576 50.6413 16.4465C48.0742 18.4355 45.3619 19.2285 44.581 18.2087C44.4006 17.9752 43.6703 17.1932 43.7143 16.8276C43.8617 15.6228 45.8393 14.3056 47.8102 12.7769C49.6448 11.354 51.3584 9.50822 52.5573 9.75711C53.2854 9.91791 53.6945 10.7131 53.9167 10.9994Z" fill="#08AF24"/>
<path opacity="0.2" d="M52.557 9.76562C53.4523 10.0696 53.6371 10.6467 53.9165 10.9991C54.1959 11.3515 54.1849 11.9396 53.9165 12.607C53.8857 12.6885 53.8483 12.77 53.8087 12.8537C53.5677 13.3434 53.2725 13.8044 52.9288 14.2282C52.8826 14.2899 52.832 14.3493 52.7814 14.411C52.3677 14.905 51.9177 15.3674 51.4352 15.7943L51.2658 15.9418C51.07 16.1114 50.8632 16.281 50.6499 16.4462C50.4365 16.6114 50.2231 16.7678 50.0076 16.9154C49.9482 16.9595 49.8844 17.0013 49.825 17.0432C49.311 17.3884 48.7729 17.6961 48.2148 17.9639C48.1466 17.9991 48.0806 18.0277 48.0168 18.0586C47.5209 18.2883 47.0006 18.4612 46.466 18.574C46.3868 18.5916 46.3098 18.6048 46.2328 18.6158C45.4783 18.7282 44.8888 18.6158 44.5874 18.2172C44.3938 17.9661 43.6569 17.237 43.7207 16.8383C43.8358 16.367 44.0804 15.9374 44.4268 15.5982C44.4752 15.5432 44.528 15.4881 44.583 15.4308C45.3771 14.607 46.6068 13.7238 47.8166 12.7877C49.2442 11.6863 50.8457 10.3229 52.0401 9.89558C52.1122 9.86906 52.1856 9.84627 52.2601 9.8273C52.3574 9.79951 52.4567 9.7789 52.557 9.76562Z" fill="black"/>
<g opacity="0.2">
<path opacity="0.2" d="M44.4665 15.25L44.5765 15.4306L46.4595 18.5738C46.3803 18.5914 46.3033 18.6046 46.2263 18.6156L44.4203 15.5936L44.2795 15.3733L44.4665 15.25Z" fill="black"/>
</g>
<g opacity="0.2">
<path opacity="0.2" d="M46.268 14.7266L48.2082 17.9644C48.14 17.9997 48.074 18.0283 48.0102 18.0592L46.0789 14.8389L46.268 14.7266Z" fill="black"/>
</g>
<g opacity="0.2">
<path opacity="0.2" d="M49.5918 12.7305L51.4286 15.7965L51.2592 15.9441L49.4026 12.8428L49.5918 12.7305Z" fill="black"/>
</g>
<g opacity="0.2">
<path opacity="0.2" d="M48.0476 13.6582L50.0009 16.9159C49.9415 16.96 49.8778 17.0018 49.8184 17.0437L47.8562 13.7705L48.0476 13.6582Z" fill="black"/>
</g>
<g opacity="0.2">
<path opacity="0.2" d="M51.1362 11.2441L52.9224 14.2287C52.8762 14.2904 52.8256 14.3499 52.775 14.4115L50.947 11.3587L51.1362 11.2441Z" fill="black"/>
</g>
<path d="M49.975 15.5821C52.5404 13.5924 53.9863 11.1601 53.2044 10.1493C52.4225 9.13852 49.709 9.93208 47.1436 11.9218C44.5782 13.9115 43.1324 16.3438 43.9143 17.3546C44.6961 18.3654 47.4096 17.5718 49.975 15.5821Z" fill="#08AF24"/>
<path opacity="0.2" d="M49.6568 14.9687C51.6873 13.394 52.8852 11.5381 52.3324 10.8235C51.7797 10.109 49.6856 10.8063 47.6552 12.3811C45.6247 13.9558 44.4269 15.8117 44.9796 16.5263C45.5323 17.2408 47.6264 16.5435 49.6568 14.9687Z" fill="white"/>
<path d="M43.2984 6.26318C43.0477 7.71251 39.8009 8.32485 36.1229 7.66406C32.4449 7.00326 29.6711 5.30062 29.9284 3.85128C29.9878 3.51428 30.0912 2.28741 30.4366 2.04291C31.5782 1.23674 34.2311 1.91075 37.0556 2.41296C39.6953 2.88212 42.5835 2.91956 43.2984 4.13762C43.7318 4.88652 43.371 5.84908 43.2984 6.26318Z" fill="#08AF24"/>
<path opacity="0.2" d="M43.2984 4.14025C43.7384 5.14025 43.3886 5.73716 43.2984 6.25699C43.2082 6.77681 42.7045 7.21073 41.9302 7.49707C41.8356 7.53452 41.7366 7.56536 41.6354 7.59619C41.0298 7.76665 40.4071 7.86933 39.7788 7.90236C39.6886 7.90236 39.6007 7.90236 39.5083 7.91778C38.7682 7.94503 38.0271 7.91779 37.2909 7.83628L37.0336 7.80324C36.7366 7.7658 36.4308 7.72174 36.1251 7.66668C35.8193 7.61161 35.5223 7.54994 35.2298 7.48166C35.1462 7.46403 35.0626 7.44201 34.979 7.42218C34.2879 7.2513 33.6101 7.03046 32.9508 6.76139C32.8695 6.73055 32.7925 6.69531 32.7155 6.66447C32.1369 6.41788 31.5879 6.10681 31.0789 5.73716C31.0019 5.6821 30.9315 5.62703 30.8589 5.56976C30.177 5.01249 29.8272 4.41337 29.9262 3.8561C29.9922 3.49487 30.045 2.31425 30.4321 2.04774C30.8193 1.78122 31.3736 1.69752 32.0336 1.69531H32.2975C33.6174 1.73937 35.3178 2.10721 37.0534 2.41558C39.0991 2.78121 41.4946 3.1006 42.7837 3.79223C42.8593 3.83236 42.9327 3.87647 43.0037 3.92439C43.1074 3.98854 43.2059 4.06072 43.2984 4.14025Z" fill="black"/>
<g opacity="0.2">
<path opacity="0.2" d="M32.3701 1.47113L32.2997 1.7024L31.0767 5.74205C30.9997 5.68698 30.9293 5.63192 30.8567 5.57465L32.0314 1.7002L32.1237 1.39844L32.3701 1.47113Z" fill="black"/>
</g>
<g opacity="0.2">
<path opacity="0.2" d="M34.2092 2.59858L32.9487 6.75937C32.8674 6.72853 32.7904 6.69329 32.7134 6.66245L33.9672 2.52148L34.2092 2.59858Z" fill="black"/>
</g>
<g opacity="0.2">
<path opacity="0.2" d="M38.4831 3.90204L37.2886 7.84256L37.0312 7.80953L38.2389 3.82715L38.4831 3.90204Z" fill="black"/>
</g>
<g opacity="0.2">
<path opacity="0.2" d="M36.4968 3.29902L35.2276 7.48404C35.144 7.46642 35.0604 7.4444 34.9768 7.42457L36.2527 3.21973L36.4968 3.29902Z" fill="black"/>
</g>
<g opacity="0.2">
<path opacity="0.2" d="M40.9401 4.07366L39.7764 7.90846C39.6862 7.90846 39.5982 7.90846 39.5059 7.92388L40.6959 4.00098L40.9401 4.07366Z" fill="black"/>
</g>
<path d="M43.4697 4.99807C43.7273 3.54889 40.9535 1.84266 37.2743 1.18709C33.5951 0.53153 30.4038 1.17489 30.1462 2.62407C29.8887 4.07325 32.6625 5.77949 36.3417 6.43505C40.0209 7.09061 43.2122 6.44726 43.4697 4.99807Z" fill="#08AF24"/>
<path opacity="0.2" d="M42.2177 4.77634C42.3997 3.75233 40.1871 2.50169 37.2758 1.98295C34.3645 1.46421 31.8569 1.87381 31.675 2.89782C31.493 3.92183 33.7055 5.17247 36.6168 5.69121C39.5281 6.20995 42.0357 5.80035 42.2177 4.77634Z" fill="white"/>
<path d="M62.5021 43.2651L39.8646 44.5867C39.0649 44.6338 38.2803 44.8248 37.5483 45.1506L12.9596 56.1638C12.5282 56.3537 12.1749 56.686 11.9587 57.1054C11.7425 57.5247 11.6765 58.0056 11.7717 58.4677L15.8346 77.7078C15.9033 78.0177 16.0419 78.3076 16.2396 78.5556C16.4374 78.8036 16.6892 79.0031 16.9758 79.1387C17.2623 79.2743 17.5761 79.3425 17.893 79.338C18.2099 79.3336 18.5216 79.2567 18.8043 79.1131L43.074 66.9809L65.4849 66.2299C65.7607 66.2225 66.0318 66.1564 66.28 66.0359C66.5283 65.9155 66.7481 65.7434 66.9248 65.5313C67.1015 65.3192 67.231 65.0718 67.3048 64.8056C67.3785 64.5394 67.3948 64.2605 67.3525 63.9876L64.3543 45.5646C64.1981 44.6131 63.4766 43.2365 62.5021 43.2651Z" fill="#08AF24"/>
<path opacity="0.1" d="M62.5021 43.2651L39.8646 44.5867C39.0649 44.6338 38.2803 44.8248 37.5483 45.1506L12.9596 56.1638C12.5282 56.3537 12.1749 56.686 11.9587 57.1054C11.7425 57.5247 11.6765 58.0056 11.7717 58.4677L15.8346 77.7078C15.9033 78.0177 16.0419 78.3076 16.2396 78.5556C16.4374 78.8036 16.6892 79.0031 16.9758 79.1387C17.2623 79.2743 17.5761 79.3425 17.893 79.338C18.2099 79.3336 18.5216 79.2567 18.8043 79.1131L43.074 66.9809L65.4849 66.2299C65.7607 66.2225 66.0318 66.1564 66.28 66.0359C66.5283 65.9155 66.7481 65.7434 66.9248 65.5313C67.1015 65.3192 67.231 65.0718 67.3048 64.8056C67.3785 64.5394 67.3948 64.2605 67.3525 63.9876L64.3543 45.5646C64.1981 44.6131 63.4766 43.2365 62.5021 43.2651Z" fill="black"/>
<path d="M17.0641 30.7378L5.18433 41.7031L26.5031 64.8609L38.3829 53.8956L17.0641 30.7378Z" fill="#08AF24"/>
<path opacity="0.5" d="M38.3799 53.8969L26.4991 64.8616L5.18359 41.7052L12.9795 34.5092L17.0644 30.7383L17.7441 31.4784L38.3799 53.8969Z" fill="#FAFAFA"/>
<path d="M17.1406 32.1536L6.6582 41.8291L26.5994 63.4904L37.0818 53.8149L17.1406 32.1536Z" stroke="#08AF24" stroke-miterlimit="10"/>
<path d="M24.2285 50.3858C25.4308 49.2761 25.2787 47.1525 23.8888 45.6426C22.4989 44.1328 20.3974 43.8085 19.1951 44.9183C17.9928 46.0281 18.1448 48.1517 19.5347 49.6615C20.9247 51.1713 23.0261 51.4956 24.2285 50.3858Z" fill="#08AF24"/>
<path opacity="0.1" d="M26.3737 55.463L22.1524 56.9233L12.9795 34.5092L17.0644 30.7383L17.7441 31.4784L26.3737 55.463Z" fill="black"/>
<path d="M27.1963 21.6649L12.0068 27.1797L22.7286 56.789L37.9181 51.2742L27.1963 21.6649Z" fill="#08AF24"/>
<path opacity="0.5" d="M27.1963 21.6649L12.0068 27.1797L22.7286 56.789L37.9181 51.2742L27.1963 21.6649Z" fill="#FAFAFA"/>
<path d="M26.7188 23.0002L13.3162 27.8662L23.3451 55.5622L36.7478 50.6961L26.7188 23.0002Z" stroke="#08AF24" stroke-miterlimit="10"/>
<path d="M26.22 42.5573C27.7573 41.9992 28.4368 39.9818 27.7378 38.0513C27.0388 36.1209 25.2259 35.0084 23.6886 35.5665C22.1513 36.1247 21.4717 38.1421 22.1707 40.0725C22.8698 42.003 24.6827 43.1155 26.22 42.5573Z" fill="#08AF24"/>
<path d="M62.6496 44.0472L40.3223 45.3072C39.5308 45.3506 38.7543 45.5411 38.0323 45.8688L13.8044 56.8204C13.3777 57.0135 13.0295 57.3467 12.8175 57.7648C12.6055 58.1829 12.5424 58.661 12.6386 59.1199L16.7015 78.3688C16.7669 78.6768 16.902 78.9655 17.0963 79.213C17.2906 79.4605 17.539 79.6601 17.8224 79.7964C18.1058 79.9328 18.4166 80.0023 18.731 79.9996C19.0454 79.9968 19.3549 79.922 19.6359 79.7807L43.5471 67.7169L65.6501 67.0164C65.9237 67.0077 66.1923 66.9407 66.438 66.8198C66.6838 66.699 66.9009 66.527 67.0749 66.3154C67.249 66.1038 67.376 65.8574 67.4474 65.5928C67.5188 65.3282 67.533 65.0513 67.489 64.7807L64.482 46.36C64.3258 45.3997 63.6131 44.0208 62.6496 44.0472Z" fill="#08AF24"/>
<path opacity="0.2" d="M41.2307 48.6767L60.3882 47.4961" stroke="black" stroke-width="2" stroke-linecap="round" stroke-linejoin="round"/>
<path opacity="0.2" d="M38.9365 49.1729L42.4363 65.2698" stroke="black" stroke-width="2" stroke-linecap="round" stroke-linejoin="round"/>
<path opacity="0.2" d="M15.6016 63.7061L18.0697 76.0871C18.0697 76.0871 19.9614 71.1752 15.6016 63.7061Z" fill="#FAFAFA"/>
<path opacity="0.2" d="M15.9248 63.8515C16.0106 64.0717 37.8474 54.6885 37.8474 54.6885C37.9066 56.8158 37.3754 58.9179 36.3129 60.7611C35.2504 62.6043 33.6982 64.1163 31.8289 65.129C25.2561 68.8184 15.9248 63.8515 15.9248 63.8515Z" fill="#FAFAFA"/>
<path d="M30.43 64.2165C30.9524 64.2165 31.3759 63.7925 31.3759 63.2694C31.3759 62.7463 30.9524 62.3223 30.43 62.3223C29.9076 62.3223 29.4841 62.7463 29.4841 63.2694C29.4841 63.7925 29.9076 64.2165 30.43 64.2165Z" fill="#08AF24"/>
<path opacity="0.2" d="M37.8584 54.6885C37.8584 54.6885 40.5663 58.77 39.9108 65.7215L37.8584 54.6885Z" fill="black"/>
<g opacity="0.2">
<path opacity="0.2" d="M14.5566 58.8436L15.0604 58.6211" stroke="#FAFAFA" stroke-linecap="round" stroke-linejoin="round"/>
<path opacity="0.2" d="M16.1052 58.1583L36.4968 49.1318" stroke="#FAFAFA" stroke-linecap="round" stroke-linejoin="round" stroke-dasharray="5.2 5.2"/>
<path opacity="0.2" d="M37.0203 48.9002L37.5218 48.6777" stroke="#FAFAFA" stroke-linecap="round" stroke-linejoin="round"/>
</g>
<path opacity="0.2" d="M41.873 52.2961L61.0306 51.1133" stroke="black" stroke-width="2" stroke-linecap="round" stroke-linejoin="round"/>
<path opacity="0.2" d="M42.7354 56.8098L61.8929 55.627" stroke="black" stroke-width="2" stroke-linecap="round" stroke-linejoin="round"/>
<path d="M57.6936 24.7471C57.6936 24.7471 57.2118 29.8858 55.3047 30.3286C54.1236 30.584 52.8922 30.4607 51.7851 29.9761L50.2343 28.7823L49.4775 31.4255C49.4775 31.4255 50.3046 32.551 52.0314 31.7713C52.0314 31.7713 55.1111 33.1281 56.8137 31.7713C58.5163 30.4145 59.0618 26.692 59.0618 26.692L57.6936 24.7471Z" fill="#B97964"/>
<path d="M59.2268 22.2585C59.2268 22.2585 57.896 19.9876 58.5009 15.8708C59.1059 11.7541 62.5528 11.2453 63.8837 11.5426C65.2145 11.84 66.3034 13.1197 67.2097 15.5558C68.116 17.992 68.4503 18.6263 69.9616 18.199C71.4728 17.7717 75.4939 16.4369 76.6136 17.6241C76.9356 17.9484 77.173 18.3472 77.3045 18.7851C77.4361 19.2231 77.458 19.6867 77.3681 20.1351C77.3681 20.1351 82.962 18.7739 82.4781 23.7695C81.9941 28.7651 73.9211 33.4281 66.2418 28.492C58.5625 23.5558 59.2268 22.2585 59.2268 22.2585Z" fill="#263238"/>
<path d="M59.1652 34.3489C59.1652 34.3489 57.6452 47.4392 57.6958 53.578C57.7464 59.7167 59.9242 74.1837 59.9242 74.1837H62.61C62.61 74.1837 62.2559 62.6154 62.3065 58.6572C62.3571 54.6991 63.0654 48.1506 63.0654 48.1506C63.0654 48.1506 63.9255 54.0361 64.9396 56.1154C65.9536 58.1947 71.5784 65.5537 75.4807 67.8379L77.3043 66.1616C77.3043 66.1616 73.2502 61.1396 71.7302 58.6528C70.2101 56.1661 68.8441 55.4612 68.2854 50.8357C67.7266 46.2101 68.6923 38.8114 67.0711 34.3467L59.1652 34.3489Z" fill="#263238"/>
<path opacity="0.2" d="M63.0654 48.1509L61.8974 39.8535C61.8974 39.8535 60.9757 44.8403 62.7905 50.9306L63.0654 48.1509Z" fill="black"/>
<path d="M60.4763 74.9169L60.5665 77.4874L62.3681 77.6372L62.4583 77.3971V74.7363L60.4763 74.9169Z" fill="#B97964"/>
<path d="M59.6206 73.9393L59.7856 74.9018L62.8784 74.9767L63.0742 73.8203L59.6206 73.9393Z" fill="#08AF24"/>
<path d="M74.6338 68.0168L77.5 65.3428L78.1314 66.3494L75.6699 68.6049L74.6338 68.0168Z" fill="#08AF24"/>
<path d="M76.0151 68.016L77.9069 69.6107L79.1212 68.1812L77.5682 66.5732L76.0151 68.016Z" fill="#B97964"/>
<path d="M79.4885 68.0713L80.6323 68.7761C80.6845 68.8083 80.7289 68.8515 80.7627 68.9026C80.7964 68.9538 80.8185 69.0118 80.8275 69.0724C80.8365 69.133 80.8322 69.1949 80.8148 69.2537C80.7974 69.3125 80.7675 69.3667 80.7269 69.4127C79.8976 70.351 77.7793 72.7343 77.5681 72.9017C77.3064 73.1219 76.9896 72.7519 76.9082 72.4215C76.9082 72.4215 77.5087 71.6242 77.5681 71.1131C77.5931 70.7185 77.5931 70.3227 77.5681 69.9281C77.5635 69.8293 77.5965 69.7325 77.6605 69.6572L78.9386 68.155C79.0046 68.0767 79.0967 68.0251 79.1978 68.0097C79.299 67.9943 79.4023 68.0162 79.4885 68.0713Z" fill="#263238"/>
<path d="M62.8079 77.7079L63.0455 79.0295C63.0564 79.0899 63.054 79.152 63.0384 79.2114C63.0228 79.2708 62.9944 79.3261 62.9552 79.3733C62.916 79.4205 62.8669 79.4586 62.8115 79.4848C62.756 79.5111 62.6955 79.5248 62.6341 79.5251C61.3825 79.5251 58.1973 79.5383 57.9311 79.4943C57.5989 79.4392 57.6583 78.9634 57.8541 78.6859C57.8541 78.6859 58.8462 78.6022 59.2619 78.3004C59.5712 78.0575 59.865 77.7956 60.1418 77.5163C60.2126 77.4469 60.3068 77.4068 60.4058 77.404L62.3746 77.3577C62.4768 77.354 62.577 77.3874 62.6566 77.4517C62.7362 77.5161 62.79 77.6071 62.8079 77.7079Z" fill="#263238"/>
<path d="M67.3593 27.0888L70.1045 25.1593C70.1045 25.1593 69.3742 22.2342 68.292 22.0888C67.2097 21.9434 61.8379 20.9192 58.4217 22.0888C58.4217 22.0888 57.1943 22.439 56.8159 25.8906L58.2765 26.3575C58.2765 26.3575 58.8001 32.8201 59.1234 33.8157H66.9193C66.9193 33.8157 67.0073 28.2584 67.3593 27.0888Z" fill="#08AF24"/>
<path d="M67.9509 26.6729C67.9509 26.6729 68.9913 29.6465 69.1761 31.2456C69.1761 31.2456 66.7036 30.2588 66.0657 29.8073L65.5817 28.0672L63.9451 27.2676L63.459 28.5892L64.825 30.2852C64.825 30.2852 68.5492 33.7742 70.4366 32.9769C72.3239 32.1795 69.6908 25.457 69.6908 25.457L67.9509 26.6729Z" fill="#B97964"/>
<path d="M60.9669 13.6529C60.9669 13.6529 60.0144 15.556 60.087 17.1044C60.1595 18.6529 60.9405 19.285 62.4253 19.5031C62.4253 19.5031 63.0588 21.4855 61.3958 21.6859C61.2682 21.7013 61.2242 22.2057 61.233 22.2872C61.277 22.6088 61.596 22.785 61.8929 22.8599C62.2057 22.9293 62.5251 22.9647 62.8454 22.9656C63.1818 22.9773 63.5165 22.9121 63.824 22.7751C64.1316 22.6381 64.404 22.4329 64.6206 22.1749C64.6558 22.133 64.9902 21.7057 64.9902 21.7057C64.9902 21.7057 64.1961 21.3115 64.4754 18.73C64.8544 18.4829 65.1455 18.1221 65.3069 17.6991C65.4587 17.6185 65.5928 17.5084 65.7016 17.3753C65.8104 17.2422 65.8916 17.0887 65.9405 16.9238C66.0593 16.4084 65.6039 15.6947 64.7724 16.4084C64.7724 16.4084 63.2062 15.6154 62.6123 12.8379C62.1719 13.2884 61.5917 13.5757 60.9669 13.6529Z" fill="#B97964"/>
<path d="M61.4133 16.6817L61.5474 15.6641L60.8281 16.4614C60.9023 16.5405 60.9937 16.6015 61.0951 16.6397C61.1966 16.6779 61.3054 16.6922 61.4133 16.6817Z" fill="#A24E3F"/>
<path d="M61.8313 17.4257C61.8313 17.4257 62.5902 17.5425 62.9554 17.0557" stroke="#222221" stroke-width="0.75" stroke-linecap="round" stroke-linejoin="round"/>
<path d="M62.5901 14.2381C62.7624 14.1891 62.9447 14.1876 63.1178 14.2337C63.2908 14.2798 63.4482 14.3719 63.5734 14.5003" stroke="#222221" stroke-linecap="round" stroke-linejoin="round"/>
<path d="M61.2768 14.0183C61.2768 14.0183 60.8369 13.9501 60.6411 14.199" stroke="#222221" stroke-linecap="round" stroke-linejoin="round"/>
<path d="M62.8959 15.5782C62.8761 15.7324 62.7772 15.8447 62.676 15.8315C62.5748 15.8183 62.5066 15.6839 62.5264 15.5298C62.5462 15.3756 62.6452 15.2632 62.7463 15.2764C62.8475 15.2897 62.9157 15.424 62.8959 15.5782Z" fill="#222221"/>
<path d="M61.14 15.2366C61.1598 15.0834 61.0929 14.9484 60.9905 14.9351C60.8881 14.9218 60.789 15.0352 60.7691 15.1884C60.7493 15.3416 60.8162 15.4766 60.9186 15.4899C61.021 15.5033 61.1201 15.3899 61.14 15.2366Z" fill="#222221"/>
<path d="M62.7487 15.276L62.4011 15.124C62.4057 15.1621 62.4201 15.1984 62.443 15.2291C62.4659 15.2599 62.4964 15.2842 62.5315 15.2996C62.5666 15.3149 62.6051 15.3208 62.6432 15.3167C62.6813 15.3126 62.7177 15.2985 62.7487 15.276Z" fill="#222221"/>
<path d="M61.0241 14.9498L60.6765 14.7979C60.6811 14.8359 60.6955 14.8722 60.7184 14.903C60.7413 14.9338 60.7718 14.958 60.8069 14.9734C60.842 14.9887 60.8805 14.9947 60.9186 14.9905C60.9567 14.9864 60.993 14.9724 61.0241 14.9498Z" fill="#222221"/>
<path d="M58.8506 33.4727V34.3912L67.2976 34.4617L67.071 33.3691L58.8506 33.4727Z" fill="#08AF24"/>
<path opacity="0.4" d="M58.8506 33.4727V34.3912L67.2976 34.4617L67.071 33.3691L58.8506 33.4727Z" fill="white"/>
</svg>
